<!DOCTYPE svg PUBLIC "-//W3C//DTD SVG 20010904//EN" "http://www.w3.org/TR/2001/REC-SVG-20010904/DTD/svg10.dtd">
<svg version="1.0" xmlns="http://www.w3.org/2000/svg" width="196px" height="209px" viewBox="0 0 1960 2090" preserveAspectRatio="xMidYMid meet">
<g id="layer101" fill="#06060a" stroke="none">
<path d="M916 2039 c-82 -58 -227 -133 -346 -180 -250 -98 -379 -264 -420 -540 -11 -76 -10 -107 9 -285 13 -109 29 -233 37 -274 19 -101 18 -159 -6 -258 -28 -118 -75 -205 -159 -295 l-35 -37 49 7 c28 5 158 8 290 8 195 0 256 -3 325 -18 119 -26 221 -71 279 -123 43 -39 50 -42 62 -28 17 20 115 86 154 103 159 69 403 92 710 68 l99 -8 -25 28 c-30 33 -91 118 -109 152 -63 121 -87 301 -57 428 37 154 49 252 51 398 2 213 -29 331 -121 462 -73 105 -141 151 -336 227 -164 64 -310 141 -346 182 -17 19 -32 34 -33 33 -2 0 -34 -23 -72 -50z"/>
</g>
<g id="layer102" fill="#0d0548" stroke="none">
<path d="M937 2053 c-26 -19 -81 -54 -122 -78 -41 -23 -71 -46 -67 -50 4 -5 2 -5 -4 -2 -7 4 -42 -7 -78 -23 -37 -17 -92 -40 -123 -52 -217 -81 -354 -265 -393 -529 -11 -76 -10 -107 9 -285 13 -109 29 -233 37 -274 19 -101 18 -159 -6 -258 -28 -118 -75 -205 -159 -294 -27 -30 -31 -38 -17 -38 9 0 15 4 11 9 -3 5 -1 12 5 16 5 3 10 3 10 -2 0 -4 120 -8 267 -8 222 0 283 -3 353 -18 119 -26 221 -71 279 -123 43 -39 50 -42 62 -28 17 20 115 86 154 103 159 69 403 92 709 68 l99 -8 -29 33 c-16 19 -47 60 -69 93 -22 33 -44 63 -50 67 -5 4 -7 8 -3 8 4 0 -5 30 -19 68 -23 60 -26 82 -28 214 -1 81 2 145 6 142 10 -6 23 61 15 81 -3 9 -2 14 3 11 15 -10 34 151 35 298 1 203 -31 325 -121 453 -45 65 -101 116 -168 153 -51 29 -325 141 -347 143 -9 1 -15 4 -13 7 2 3 -25 21 -61 39 -35 18 -77 48 -94 67 -16 19 -31 34 -32 33 -2 0 -24 -16 -51 -36z m-23 -498 c-14 -11 -49 -14 -140 -15 -141 0 -244 -9 -244 -21 0 -5 97 -9 216 -9 l217 0 -7 30 c-4 23 -3 29 7 23 17 -11 8 -10 212 -12 l185 -1 0 -25 c0 -23 -3 -25 -52 -26 -29 -1 -70 0 -92 1 -40 2 -159 -10 -154 -15 2 -2 50 -9 108 -15 75 -8 109 -16 120 -29 8 -9 30 -23 48 -30 43 -18 50 -32 15 -29 -51 3 -103 -2 -103 -10 0 -14 51 -33 71 -27 13 4 19 1 19 -9 0 -12 -7 -14 -30 -9 -35 7 -41 -10 -9 -27 20 -11 20 -12 3 -31 -9 -10 -22 -19 -28 -19 -6 0 -4 4 4 10 24 15 -22 95 -73 123 -207 117 -237 131 -237 110 0 -5 -106 -7 -235 -5 l-235 3 0 23 c0 43 16 47 215 46 103 -1 189 1 193 4 3 3 10 6 16 6 5 0 1 -7 -10 -15z m500 -221 c3 -8 1 -14 -4 -14 -6 0 -10 5 -10 10 0 6 -7 10 -16 10 -8 0 -13 4 -9 10 7 12 32 2 39 -16z m-235 -21 c10 -20 9 -23 -7 -23 -15 0 -18 5 -14 25 5 29 5 29 21 -2z m270 -37 c9 -11 6 -13 -13 -11 -13 2 -34 6 -46 10 -14 4 -25 2 -30 -5 -5 -8 -9 -7 -13 4 -5 13 2 16 42 16 29 0 53 -6 60 -14z m-189 -66 c0 -37 -2 -40 -27 -39 l-28 1 25 8 c18 6 20 9 8 10 -10 1 -22 3 -27 4 -5 0 -13 5 -18 10 -4 5 7 5 25 1 29 -6 33 -4 32 12 -3 23 -1 33 5 33 3 0 5 -18 5 -40z m225 14 c9 -14 15 -27 13 -29 -2 -1 -40 -5 -85 -7 -75 -5 -83 -3 -89 14 -3 11 -4 21 -2 23 1 1 32 7 68 13 36 5 68 10 71 11 4 0 14 -11 24 -25z m-116 -264 c0 -23 -1 -23 -9 -5 -5 11 -9 29 -9 40 -1 17 1 17 9 5 5 -8 9 -26 9 -40z"/>
</g>
<g id="layer103" fill="#2a2b2c" stroke="none">
<path d="M891 2024 c-52 -35 -87 -64 -79 -64 9 0 18 3 20 8 2 4 32 25 68 46 36 22 68 44 71 49 4 5 30 -9 58 -31 28 -22 77 -53 108 -68 32 -16 60 -31 63 -34 3 -3 10 -6 15 -7 6 -1 19 -4 30 -8 11 -4 -27 18 -85 49 -58 30 -120 71 -138 91 -18 19 -33 34 -35 34 -1 -1 -44 -30 -96 -65z"/>
<path d="M968 1919 c-6 -4 -16 -5 -22 -2 -5 3 -6 2 -3 -4 9 -14 -92 -76 -243 -149 -74 -36 -153 -74 -176 -85 -96 -47 -175 -161 -213 -311 -26 -103 -37 -250 -22 -306 47 -171 65 -450 37 -574 -9 -41 -30 -96 -46 -121 -15 -25 -27 -47 -24 -49 2 -2 36 2 76 9 40 7 98 12 129 11 31 -1 60 2 66 5 19 12 205 -13 274 -37 64 -22 132 -60 167 -94 18 -16 19 -16 45 9 34 32 155 85 227 100 73 15 273 18 398 6 l83 -8 -34 53 c-47 74 -67 139 -74 239 -6 92 7 185 38 276 10 29 23 106 30 172 27 259 -37 481 -166 579 -23 18 -89 51 -146 73 -164 64 -301 133 -346 176 -27 25 -47 37 -55 32z m15 -365 c4 -1 90 -2 191 -3 175 -1 184 -2 189 -21 3 -11 1 -22 -4 -25 -5 -3 -53 -6 -106 -6 -90 1 -198 -8 -191 -14 2 -2 50 -9 108 -15 75 -8 109 -16 120 -29 8 -9 30 -23 48 -30 43 -18 50 -32 15 -29 -51 3 -103 -2 -103 -10 0 -14 51 -33 71 -27 13 4 19 1 19 -9 0 -12 -7 -14 -30 -9 -35 7 -41 -10 -9 -27 20 -11 20 -12 3 -31 -9 -10 -22 -19 -28 -19 -6 0 -4 4 4 10 24 15 -22 95 -73 123 -207 117 -237 131 -237 110 0 -5 -106 -8 -235 -8 l-235 0 0 25 c0 47 11 50 209 51 103 0 195 4 206 8 12 5 28 4 40 -2 11 -6 23 -12 28 -13z m431 -220 c3 -8 1 -14 -4 -14 -6 0 -10 5 -10 10 0 6 -7 10 -16 10 -8 0 -13 4 -9 10 7 12 32 2 39 -16z m-235 -21 c10 -20 9 -23 -7 -23 -15 0 -18 5 -14 25 5 29 5 29 21 -2z m270 -37 c9 -11 6 -13 -13 -11 -13 2 -34 6 -46 10 -14 4 -25 2 -30 -5 -5 -8 -9 -7 -13 4 -5 13 2 16 42 16 29 0 53 -6 60 -14z m-189 -66 c0 -37 -2 -40 -27 -39 l-28 1 25 8 c18 6 20 9 8 10 -10 1 -22 3 -27 4 -5 0 -13 5 -18 10 -4 5 7 5 25 1 29 -6 33 -4 32 12 -3 23 -1 33 5 33 3 0 5 -18 5 -40z m228 10 l23 -30 -68 -2 c-37 -1 -77 -2 -88 -3 -21 -1 -35 11 -35 31 0 7 29 16 68 21 37 6 70 11 73 12 3 0 15 -12 27 -29z m-119 -260 c0 -23 -1 -23 -9 -5 -5 11 -9 29 -9 40 -1 17 1 17 9 5 5 -8 9 -26 9 -40z"/>
<path d="M905 1551 c-4 -7 -54 -11 -129 -11 -142 0 -246 -9 -246 -21 0 -5 97 -9 216 -9 l215 0 -3 23 c-3 24 -41 36 -53 18z"/>
<path d="M990 1519 c25 -11 327 -5 338 6 3 3 -78 5 -179 4 -135 0 -177 -3 -159 -10z"/>
<path d="M1524 1788 c-4 -7 -3 -8 5 -4 12 8 43 -13 110 -77 66 -63 106 -129 142 -237 10 -30 18 -47 18 -37 1 34 -51 152 -96 215 -39 55 -144 152 -165 152 -4 0 -10 -5 -14 -12z"/>
<path d="M378 1755 c-56 -44 -111 -112 -98 -120 6 -3 10 0 10 8 0 9 32 45 71 81 79 73 85 84 17 31z"/>
<path d="M245 1604 c-9 -14 -14 -28 -12 -31 3 -3 13 9 22 26 19 38 14 41 -10 5z"/>
<path d="M1727 1263 c-4 -3 -7 -15 -7 -25 0 -20 25 -25 36 -7 3 6 17 9 30 6 18 -3 24 0 24 14 0 15 -8 19 -38 19 -21 0 -42 -3 -45 -7z"/>
<path d="M1730 1181 c0 -6 5 -13 10 -16 8 -5 7 -11 -1 -21 -9 -11 -7 -14 14 -14 58 0 78 32 31 50 -32 13 -54 13 -54 1z"/>
<path d="M1724 1084 c-8 -32 -6 -34 42 -37 32 -2 40 -6 45 -27 5 -20 7 -16 7 15 1 57 -8 70 -50 72 -33 2 -39 -1 -44 -23z"/>
<path d="M1700 916 c0 -8 6 -17 13 -19 6 -3 3 -6 -8 -6 -11 -1 -27 -6 -35 -12 -12 -8 -10 -9 9 -4 14 4 21 3 18 -2 -3 -5 2 -9 11 -9 57 0 70 -4 67 -21 -2 -10 -4 -20 -4 -23 -1 -3 -5 0 -9 6 -8 13 -82 6 -82 -7 0 -5 11 -11 25 -15 14 -3 25 -10 25 -15 0 -5 6 -9 14 -9 8 0 17 -6 19 -12 2 -7 3 0 1 15 -2 15 0 26 5 23 13 -8 23 42 16 75 -7 33 -40 57 -48 36 -4 -9 -6 -9 -6 1 -1 17 -31 15 -31 -2z"/>
<path d="M253 847 c-43 -14 -42 -33 3 -47 31 -11 38 -10 53 5 13 13 13 16 1 13 -10 -2 -14 4 -12 20 4 24 2 24 -45 9z"/>
<path d="M150 380 c-19 -45 -75 -127 -118 -172 -29 -31 -33 -38 -17 -38 10 0 15 3 12 7 -4 3 10 25 31 47 44 48 115 163 109 179 -2 6 -9 -5 -17 -23z"/>
<path d="M1820 362 c0 -13 76 -126 95 -142 21 -17 19 -28 -7 -33 -14 -2 -7 -5 16 -6 l40 -1 -26 28 c-14 15 -46 58 -72 95 -25 38 -46 64 -46 59z"/>
<path d="M1455 290 c-3 -5 -10 -8 -15 -5 -12 7 7 -56 20 -69 19 -19 45 8 45 45 0 27 -4 35 -22 37 -11 2 -24 -2 -28 -8z m32 -30 c1 -11 -2 -20 -5 -20 -4 0 -8 9 -9 20 -1 11 2 20 5 20 4 0 8 -9 9 -20z"/>
<path d="M800 230 c0 -16 -4 -30 -10 -30 -5 0 -10 -7 -10 -15 0 -10 10 -15 29 -15 33 0 51 17 27 26 -10 4 -16 18 -16 35 0 16 -4 29 -10 29 -5 0 -10 -13 -10 -30z"/>
<path d="M1435 199 c-16 -6 -14 -8 13 -8 33 -1 41 4 20 12 -7 2 -22 1 -33 -4z"/>
<path d="M232 193 c54 -2 142 -2 196 0 53 1 9 3 -98 3 -107 0 -151 -2 -98 -3z"/>
<path d="M1305 175 c-67 -17 -36 -18 40 -1 33 8 49 14 35 14 -14 0 -47 -6 -75 -13z"/>
<path d="M817 119 c41 -17 94 -50 122 -75 48 -43 49 -43 66 -24 10 11 40 34 66 51 27 17 49 33 49 36 0 7 -78 -39 -99 -58 -10 -10 -22 -15 -26 -11 -4 4 -5 2 -3 -3 2 -6 -2 -10 -7 -10 -5 0 -9 4 -7 10 2 5 0 7 -4 3 -4 -4 -23 7 -43 24 -35 31 -149 88 -173 88 -7 0 20 -14 59 -31z"/>
<path d="M1150 125 c-14 -8 -20 -14 -15 -14 6 0 21 6 35 14 14 8 21 14 15 14 -5 0 -21 -6 -35 -14z"/>
</g>
<g id="layer104" fill="#2e2c5c" stroke="none">
<path d="M891 2024 c-52 -35 -89 -64 -82 -64 7 0 18 6 26 13 7 6 37 26 65 42 29 17 59 37 67 45 12 14 18 12 54 -21 21 -20 70 -51 107 -70 37 -18 69 -36 72 -39 3 -3 10 -6 15 -7 6 -1 19 -4 30 -8 11 -4 -27 18 -85 49 -58 30 -120 71 -138 91 -18 19 -33 34 -35 34 -1 -1 -44 -30 -96 -65z"/>
<path d="M705 1918 c-11 -7 -65 -30 -121 -52 -55 -23 -111 -49 -125 -59 l-24 -19 25 14 c14 8 59 26 100 42 80 29 159 66 166 79 7 9 3 9 -21 -5z"/>
<path d="M968 1919 c-6 -4 -16 -5 -22 -2 -5 3 -6 2 -3 -4 9 -14 -92 -76 -243 -149 -74 -36 -153 -74 -176 -85 -96 -47 -175 -161 -213 -311 -26 -103 -37 -250 -22 -306 47 -171 65 -450 37 -574 -9 -41 -30 -96 -46 -121 -15 -25 -27 -47 -24 -49 2 -2 36 2 76 9 40 7 98 12 129 11 31 -1 60 2 66 5 19 12 205 -13 274 -37 64 -22 132 -60 167 -94 18 -16 19 -16 45 9 34 32 155 85 227 100 73 15 273 18 398 6 l83 -8 -34 53 c-47 74 -67 139 -74 239 -6 92 7 185 38 276 10 29 23 106 30 172 27 259 -37 481 -166 579 -23 18 -89 51 -146 73 -164 64 -301 133 -346 176 -27 25 -47 37 -55 32z m184 -359 c108 -3 199 -8 202 -11 3 -3 7 -16 8 -30 l3 -24 -150 -5 c-82 -3 -141 -7 -130 -8 188 -20 201 -23 217 -42 9 -11 20 -20 25 -20 4 0 22 -9 38 -21 l30 -21 -37 7 c-23 3 -38 2 -38 -4 0 -6 -15 -7 -35 -4 -22 4 -35 2 -35 -5 0 -12 56 -26 80 -20 7 2 16 -6 18 -16 3 -16 0 -18 -27 -13 -35 7 -38 2 -14 -25 15 -17 15 -21 3 -29 -13 -8 -13 -10 0 -20 13 -9 12 -10 -3 -5 -10 3 -24 6 -30 6 -8 0 -7 3 1 9 11 7 10 16 -6 47 -26 50 -38 60 -157 126 -105 58 -145 75 -145 61 0 -4 -103 -7 -230 -5 -126 1 -230 0 -230 -4 0 -4 8 -17 17 -28 l18 -21 -23 19 c-18 16 -22 28 -20 60 l3 41 207 5 c113 3 210 8 214 12 4 4 12 4 18 0 6 -4 100 -9 208 -12z m28 -230 c-5 -3 -5 -12 0 -20 6 -8 10 -18 10 -22 0 -12 -39 -3 -53 11 -9 10 -8 11 6 5 15 -5 17 -2 13 19 -2 15 1 28 7 30 15 5 29 -15 17 -23z m239 8 c9 -14 8 -18 -1 -18 -16 1 -49 25 -43 32 11 10 33 4 44 -14z m-714 -87 c-3 -2 -6 -2 -7 0 -2 2 -19 22 -38 44 l-35 40 42 -39 c24 -22 40 -42 38 -45z m768 -3 l37 -53 -43 -7 c-87 -14 -135 -10 -147 13 -7 11 -10 23 -7 25 6 6 48 11 100 13 26 1 37 5 34 14 -2 6 -14 11 -26 9 -12 -2 -29 2 -38 10 -13 10 -17 10 -20 1 -3 -7 -12 -13 -21 -13 -15 0 -15 2 -2 10 8 5 11 10 5 11 -8 2 43 13 81 18 6 0 27 -23 47 -51z m-185 -52 c7 1 8 0 2 -3 -5 -2 -7 -10 -4 -15 4 -7 2 -8 -4 -4 -7 4 -19 3 -28 -2 -21 -12 -54 -4 -54 14 0 7 -10 20 -22 28 -28 20 -19 20 18 1 16 -8 35 -15 42 -15 16 0 10 24 -6 26 -33 4 -34 7 -7 13 26 6 31 3 40 -20 6 -14 16 -25 23 -23z m82 -232 c0 -18 -5 -36 -12 -40 -7 -5 -9 -2 -5 8 3 9 2 32 -3 52 -7 31 -6 35 6 25 8 -6 14 -26 14 -45z"/>
<path d="M1300 1895 c0 -5 52 -28 91 -40 13 -4 22 -5 19 -2 -8 8 -110 47 -110 42z"/>
<path d="M1450 1831 c19 -11 42 -20 50 -20 18 0 -25 24 -60 33 -19 5 -16 2 10 -13z"/>
<path d="M1524 1788 c-4 -7 -3 -8 5 -4 6 4 30 -7 54 -26 100 -79 154 -157 198 -288 10 -30 18 -47 18 -37 1 34 -51 152 -96 215 -39 55 -144 152 -165 152 -4 0 -10 -5 -14 -12z"/>
<path d="M378 1755 c-60 -47 -112 -112 -96 -121 6 -4 8 -3 5 3 -4 6 27 43 69 82 42 39 74 71 72 71 -3 0 -25 -16 -50 -35z"/>
<path d="M165 1410 c-4 -17 -5 -34 -2 -36 2 -3 7 10 11 27 8 42 0 50 -9 9z"/>
<path d="M1807 1365 c3 -27 7 -52 9 -54 7 -8 2 54 -6 79 -6 17 -7 9 -3 -25z"/>
<path d="M1720 1360 c-27 -27 -16 -47 30 -52 21 -2 36 0 34 4 -3 5 0 8 5 8 17 0 13 32 -6 46 -25 19 -40 17 -63 -6z m50 -20 c0 -5 -6 -10 -14 -10 -8 0 -18 5 -21 10 -3 6 3 10 14 10 12 0 21 -4 21 -10z"/>
<path d="M210 1358 c0 -4 -7 -8 -16 -8 -15 0 -15 -2 -2 -22 8 -12 22 -22 32 -24 14 -2 15 0 5 12 -6 8 -9 17 -6 20 9 10 39 -5 33 -15 -3 -5 2 -11 12 -13 15 -4 17 0 14 22 -3 23 -10 29 -38 32 -19 2 -34 0 -34 -4z"/>
<path d="M1823 1220 c0 -47 2 -66 4 -42 2 23 2 61 0 85 -2 23 -4 4 -4 -43z"/>
<path d="M143 1230 c0 -36 2 -50 4 -32 2 17 2 47 0 65 -2 17 -4 3 -4 -33z"/>
<path d="M1727 1263 c-13 -12 -7 -43 8 -43 8 0 15 5 15 11 0 7 12 10 30 7 24 -4 30 -1 30 14 0 14 -8 18 -38 18 -21 0 -42 -3 -45 -7z"/>
<path d="M190 1250 c0 -5 11 -10 25 -10 14 0 25 -4 25 -10 0 -5 -11 -10 -25 -10 -14 0 -25 -4 -25 -10 0 -5 18 -10 40 -10 38 0 40 2 40 30 0 28 -2 30 -40 30 -22 0 -40 -4 -40 -10z"/>
<path d="M1730 1181 c0 -6 5 -13 10 -16 8 -5 7 -11 -1 -21 -9 -11 -7 -14 14 -14 58 0 76 28 32 48 -31 14 -55 15 -55 3z"/>
<path d="M177 1164 c-13 -14 6 -30 33 -28 17 1 28 -2 25 -6 -3 -4 3 -10 13 -12 15 -4 17 0 14 23 -4 26 -8 29 -41 29 -21 0 -40 -3 -44 -6z"/>
<path d="M150 1100 c0 -16 2 -30 4 -30 2 0 6 14 8 30 3 17 1 30 -4 30 -4 0 -8 -13 -8 -30z"/>
<path d="M180 1081 c0 -31 14 -49 25 -31 3 5 19 10 36 10 19 0 29 5 29 15 0 10 -10 15 -30 15 -16 0 -30 5 -30 10 0 6 -7 10 -15 10 -10 0 -15 -10 -15 -29z"/>
<path d="M1724 1084 c-8 -32 -6 -34 44 -37 37 -2 42 -5 43 -27 0 -14 3 -19 6 -12 3 7 2 32 -1 55 -6 41 -8 42 -46 44 -35 1 -41 -2 -46 -23z"/>
<path d="M162 1010 c0 -19 2 -27 5 -17 2 9 2 25 0 35 -3 9 -5 1 -5 -18z"/>
<path d="M208 1023 c-30 -8 -20 -23 15 -24 l32 -1 -29 -7 c-16 -3 -31 -12 -34 -18 -5 -16 17 -17 53 -3 20 7 26 16 23 33 -3 22 -25 30 -60 20z"/>
<path d="M1706 1015 c-3 -8 -1 -17 3 -19 5 -3 6 -16 4 -29 -3 -17 0 -24 11 -24 9 0 16 4 16 9 0 4 11 8 25 8 37 0 30 22 -14 47 -32 19 -40 20 -45 8z"/>
<path d="M222 933 c-28 -30 2 -83 31 -54 6 6 20 11 32 11 18 1 19 2 3 14 -12 9 -14 16 -7 23 7 7 2 12 -18 15 -16 2 -35 -2 -41 -9z"/>
<path d="M1700 916 c0 -8 6 -17 13 -19 6 -3 3 -6 -8 -6 -11 -1 -27 -6 -35 -12 -12 -8 -10 -9 9 -4 14 4 21 3 18 -2 -3 -5 2 -9 11 -9 65 0 74 -4 69 -25 -4 -16 -3 -19 5 -11 16 16 1 80 -22 92 -13 7 -20 6 -23 -3 -4 -9 -6 -9 -6 1 -1 17 -31 15 -31 -2z"/>
<path d="M180 845 c0 -14 4 -25 9 -25 4 0 6 11 3 25 -2 14 -6 25 -8 25 -2 0 -4 -11 -4 -25z"/>
<path d="M253 847 c-43 -14 -42 -30 3 -46 32 -11 38 -11 53 4 13 14 13 16 1 13 -10 -2 -14 4 -13 20 3 24 3 24 -44 9z"/>
<path d="M1713 833 c-39 -5 -43 -20 -8 -29 14 -3 25 -10 25 -15 0 -5 7 -9 15 -9 8 0 15 -7 15 -17 0 -9 2 -14 5 -11 7 7 -6 88 -14 86 -3 0 -21 -3 -38 -5z"/>
<path d="M1753 650 c0 -41 2 -58 4 -37 2 20 2 54 0 75 -2 20 -4 3 -4 -38z"/>
<path d="M186 489 c-8 -42 0 -50 9 -9 4 17 5 34 2 36 -2 3 -7 -10 -11 -27z"/>
<path d="M1773 479 c8 -31 36 -99 41 -99 6 0 -34 113 -41 120 -3 3 -3 -7 0 -21z"/>
<path d="M140 363 c0 -16 -67 -113 -108 -155 -29 -31 -33 -38 -17 -38 10 0 15 3 12 7 -4 3 11 25 32 48 44 48 96 133 87 142 -3 4 -6 2 -6 -4z"/>
<path d="M1830 343 c0 -14 84 -128 102 -139 9 -6 4 -10 -17 -15 -28 -6 -28 -7 9 -8 l40 -1 -26 28 c-14 15 -44 54 -66 86 -23 33 -42 55 -42 49z"/>
<path d="M440 260 c0 -40 0 -40 38 -40 36 1 36 1 13 14 -18 10 -20 15 -10 19 12 5 12 7 -1 16 -13 9 -13 11 3 11 9 0 17 5 17 10 0 6 -13 10 -30 10 -28 0 -30 -2 -30 -40z"/>
<path d="M1307 293 c-11 -10 -8 -81 3 -88 6 -4 10 13 10 44 0 52 -1 56 -13 44z"/>
<path d="M1455 290 c-3 -5 -10 -8 -15 -5 -12 7 7 -56 20 -69 19 -19 45 8 45 45 0 27 -4 35 -22 37 -11 2 -24 -2 -28 -8z m35 -30 c0 -11 -4 -20 -10 -20 -5 0 -10 9 -10 20 0 11 5 20 10 20 6 0 10 -9 10 -20z"/>
<path d="M617 283 c-3 -7 -2 -54 2 -75 2 -12 36 -1 37 13 0 8 5 22 9 33 5 12 3 21 -6 27 -17 11 -36 12 -42 2z"/>
<path d="M800 230 c0 -16 -4 -30 -10 -30 -5 0 -10 -7 -10 -15 0 -10 10 -15 30 -15 20 0 30 5 30 15 0 8 -4 15 -10 15 -5 0 -10 14 -10 30 0 17 -4 30 -10 30 -5 0 -10 -13 -10 -30z"/>
<path d="M1109 238 c-2 -28 2 -62 7 -67 1 -2 15 0 29 3 23 6 26 11 23 44 -3 32 -7 37 -30 40 -23 3 -28 -1 -29 -20z"/>
<path d="M1597 203 c18 -2 50 -2 70 0 21 2 7 4 -32 4 -38 0 -55 -2 -38 -4z"/>
<path d="M168 193 c12 -2 30 -2 40 0 9 3 -1 5 -23 4 -22 0 -30 -2 -17 -4z"/>
<path d="M282 193 c32 -2 84 -2 115 0 32 2 6 3 -57 3 -63 0 -89 -1 -58 -3z"/>
<path d="M473 193 c9 -2 25 -2 35 0 9 3 1 5 -18 5 -19 0 -27 -2 -17 -5z"/>
<path d="M1788 193 c18 -2 45 -2 60 0 15 2 0 4 -33 4 -33 0 -45 -2 -27 -4z"/>
<path d="M53 183 c9 -2 25 -2 35 0 9 3 1 5 -18 5 -19 0 -27 -2 -17 -5z"/>
<path d="M1340 180 c-11 -7 -5 -8 20 -4 43 8 51 14 19 14 -13 0 -31 -5 -39 -10z"/>
<path d="M1280 170 c-21 -7 -21 -8 -5 -9 11 0 27 4 35 9 18 11 5 11 -30 0z"/>
<path d="M690 160 c34 -11 60 -11 35 0 -11 5 -29 8 -40 8 -16 0 -15 -2 5 -8z"/>
<path d="M963 163 c-8 -3 -13 -21 -13 -43 0 -21 5 -40 13 -42 25 -10 37 4 37 42 0 37 -12 51 -37 43z"/>
<path d="M751 147 c9 -8 89 -36 89 -32 0 6 -69 35 -83 35 -6 0 -8 -2 -6 -3z"/>
<path d="M880 89 c19 -12 53 -37 75 -57 21 -21 34 -30 27 -21 -6 9 -8 20 -4 24 4 5 2 5 -5 1 -6 -3 -15 -1 -18 4 -10 16 -86 70 -99 70 -6 0 5 -9 24 -21z"/>
<path d="M1045 67 c-16 -12 -32 -25 -33 -29 -2 -5 -9 -5 -14 -2 -7 4 -8 2 -4 -4 6 -11 43 9 91 50 21 18 -12 6 -40 -15z"/>
</g>
<g id="layer105" fill="#543c37" stroke="none">
<path d="M935 1892 c-102 -70 -318 -183 -376 -197 -44 -11 -122 -78 -164 -141 -54 -79 -91 -195 -105 -327 -10 -92 -10 -118 4 -175 59 -256 65 -489 16 -628 -11 -31 -27 -65 -36 -75 -10 -11 -15 -21 -12 -24 3 -3 39 0 79 7 41 6 135 12 209 12 184 -1 291 -30 392 -107 l44 -34 43 33 c113 87 348 124 601 94 41 -4 76 -7 78 -5 2 2 -8 21 -23 43 -86 130 -99 327 -35 527 11 33 24 110 29 171 23 256 -36 466 -157 561 -49 39 -75 52 -197 99 -113 43 -262 122 -304 159 -21 19 -40 35 -42 35 -2 0 -22 -13 -44 -28z m226 -329 l196 -4 10 -34 c6 -19 8 -34 4 -33 -22 2 -304 -3 -300 -6 2 -2 51 -9 109 -15 84 -9 108 -15 122 -31 9 -11 20 -20 25 -20 4 0 22 -9 38 -21 l30 -21 -37 7 c-23 3 -38 2 -38 -4 0 -6 -15 -7 -35 -4 -22 4 -35 2 -35 -5 0 -12 56 -26 80 -20 7 2 16 -6 18 -16 3 -16 0 -18 -27 -13 -35 7 -38 2 -14 -25 15 -17 15 -21 3 -29 -13 -8 -13 -10 0 -20 13 -9 12 -10 -3 -5 -10 3 -24 6 -30 6 -8 0 -7 3 1 9 11 7 10 16 -6 47 -26 50 -38 60 -157 126 -105 58 -145 75 -145 61 0 -4 -103 -7 -230 -5 -126 1 -230 0 -230 -4 0 -8 95 -120 159 -186 25 -27 42 -48 39 -48 -9 0 -92 88 -157 167 -46 54 -52 67 -49 100 l3 38 202 5 c111 3 205 9 209 13 5 5 18 5 29 1 11 -5 108 -10 216 -11z m19 -233 c-5 -3 -5 -12 0 -20 6 -8 10 -18 10 -22 0 -12 -39 -3 -53 11 -9 10 -8 11 6 5 15 -5 17 -2 13 19 -2 15 1 28 7 30 15 5 29 -15 17 -23z m239 8 c9 -14 8 -18 -1 -18 -16 1 -49 25 -43 32 11 10 33 4 44 -14z m54 -90 l37 -53 -43 -7 c-87 -14 -135 -10 -147 13 -7 11 -10 23 -7 25 6 6 48 11 100 13 26 1 37 5 34 14 -2 6 -14 11 -26 9 -12 -2 -29 2 -38 10 -13 10 -17 10 -20 1 -3 -7 -12 -13 -21 -13 -15 0 -15 2 -2 10 8 5 11 10 5 11 -8 2 43 13 81 18 6 0 27 -23 47 -51z m-185 -52 c7 1 8 0 2 -3 -5 -2 -7 -10 -4 -15 4 -7 2 -8 -4 -4 -6 4 -20 3 -29 -3 -13 -6 -29 -5 -51 4 -33 14 -46 32 -14 21 12 -4 10 0 -7 14 -28 24 -23 25 15 5 16 -8 35 -15 42 -15 16 0 10 24 -6 26 -33 4 -34 7 -7 13 26 6 31 3 40 -20 6 -14 16 -25 23 -23z m82 -232 c0 -18 -5 -36 -12 -40 -7 -5 -9 -2 -5 8 3 9 2 32 -3 52 -7 31 -6 35 6 25 8 -6 14 -26 14 -45z"/>
<path d="M913 1549 c-6 -6 -88 -13 -193 -16 -111 -4 -176 -9 -167 -15 25 -13 400 -5 404 9 6 17 -31 35 -44 22z"/>
<path d="M973 1524 c6 -7 329 -6 336 1 2 3 -74 5 -169 5 -95 0 -171 -3 -167 -6z"/>
<path d="M1778 193 c12 -2 30 -2 40 0 9 3 -1 5 -23 4 -22 0 -30 -2 -17 -4z"/>
</g>
<g id="layer106" fill="#7f541a" stroke="none">
<path d="M935 1892 c-102 -70 -318 -183 -376 -197 -44 -11 -122 -78 -164 -141 -54 -79 -91 -195 -105 -327 -10 -92 -10 -118 4 -175 59 -256 65 -489 16 -628 -11 -31 -27 -65 -36 -75 -10 -11 -15 -21 -12 -24 3 -3 39 0 79 7 41 6 135 12 209 12 184 -1 291 -30 392 -107 l44 -34 43 33 c113 87 348 124 601 94 41 -4 76 -7 78 -5 2 2 -8 21 -23 43 -86 130 -99 327 -35 527 11 33 24 110 29 171 23 256 -36 466 -157 561 -49 39 -75 52 -197 99 -113 43 -262 122 -304 159 -21 19 -40 35 -42 35 -2 0 -22 -13 -44 -28z m226 -329 l196 -4 10 -33 11 -34 -146 -1 c-81 -1 -148 -3 -149 -5 -2 -2 43 -8 99 -15 79 -8 107 -15 119 -30 8 -10 24 -21 35 -25 10 -3 30 -15 44 -26 l25 -19 -40 9 c-26 6 -41 6 -43 -1 -2 -5 -20 -7 -40 -4 -35 6 -36 6 -17 -10 13 -11 31 -15 53 -11 27 4 32 2 32 -16 0 -17 -4 -20 -30 -14 -34 6 -37 1 -13 -26 12 -14 14 -21 5 -30 -16 -16 11 -39 39 -32 13 3 41 5 62 4 20 0 37 4 37 10 0 5 -13 10 -28 10 -15 0 -34 6 -41 13 -11 10 -14 10 -18 0 -7 -20 -32 -15 -27 5 4 13 17 17 57 18 52 1 52 1 85 -49 40 -62 35 -67 -71 -67 l-78 0 -15 36 c-10 24 -20 34 -30 30 -7 -3 -14 -1 -14 3 0 5 5 11 11 13 17 6 -25 83 -58 106 -55 38 -247 136 -250 126 -2 -5 -96 -8 -233 -6 -126 1 -230 0 -230 -4 0 -10 160 -193 183 -209 11 -8 18 -17 15 -20 -7 -7 -79 68 -157 162 -46 54 -52 67 -49 100 l3 38 202 5 c111 3 205 9 209 13 5 5 18 5 29 1 11 -5 108 -10 216 -11z m40 -235 c10 -6 7 -7 -9 -3 -22 6 -23 5 -11 -17 6 -12 17 -27 23 -31 6 -5 3 -6 -9 -2 -11 4 -26 8 -33 9 -7 1 -18 8 -25 15 -9 10 -8 11 6 5 15 -5 17 -2 13 19 -4 26 13 43 25 24 4 -5 13 -14 20 -19z m219 12 c8 -15 8 -20 -2 -20 -15 1 -48 24 -48 34 0 15 40 4 50 -14z m-224 -91 c3 -6 19 -9 35 -7 24 4 29 0 34 -23 5 -20 11 -26 23 -22 13 4 14 3 4 -5 -20 -13 -19 -17 3 -42 l20 -23 -28 18 c-21 13 -25 20 -15 26 7 5 9 9 3 9 -5 0 -16 -4 -24 -9 -15 -10 -67 5 -78 22 -4 7 0 8 13 4 12 -5 8 2 -11 18 -21 18 -24 24 -10 19 11 -4 29 -13 40 -21 11 -7 26 -13 33 -13 19 0 10 23 -10 26 -21 3 -67 34 -51 34 7 0 15 -5 19 -11z m165 -233 c5 3 9 -15 9 -40 0 -25 -4 -48 -10 -51 -6 -4 -10 10 -10 34 0 21 -2 45 -3 53 -2 7 -2 10 0 5 3 -4 9 -5 14 -1z"/>
</g>
<g id="layer107" fill="#5b5767" stroke="none">
<path d="M990 2067 c0 -2 15 -14 33 -27 l32 -23 -24 26 c-21 23 -41 35 -41 24z"/>
<path d="M1066 2009 c6 -11 64 -42 69 -37 2 2 -14 13 -36 25 -21 12 -37 17 -33 12z"/>
<path d="M935 1892 c-102 -70 -318 -183 -376 -197 -44 -11 -122 -78 -164 -141 -54 -79 -91 -195 -105 -327 -10 -92 -10 -118 4 -175 59 -256 65 -489 16 -628 -11 -31 -27 -65 -36 -75 -10 -11 -15 -21 -12 -24 3 -3 39 0 79 7 41 6 135 12 209 12 184 -1 291 -30 392 -107 l44 -34 43 33 c113 87 348 124 601 94 41 -4 76 -7 78 -5 2 2 -8 21 -23 43 -86 130 -99 327 -35 527 11 33 24 110 29 171 23 256 -36 466 -157 561 -49 39 -75 52 -197 99 -113 43 -262 122 -304 159 -21 19 -40 35 -42 35 -2 0 -22 -13 -44 -28z m226 -329 l196 -4 10 -33 11 -34 -146 -1 c-81 -1 -148 -3 -149 -5 -2 -2 43 -8 99 -15 79 -8 107 -15 119 -30 8 -10 24 -21 35 -25 10 -3 30 -15 44 -26 l25 -19 -40 9 c-26 6 -41 6 -43 -1 -2 -5 -20 -7 -40 -4 -35 6 -36 6 -17 -10 13 -11 31 -15 53 -11 27 4 32 2 32 -16 0 -17 -4 -20 -30 -14 -34 6 -37 1 -13 -26 12 -14 14 -21 5 -30 -16 -16 11 -39 39 -32 13 3 41 5 62 4 20 0 37 4 37 10 0 5 -13 10 -28 10 -15 0 -34 6 -41 13 -11 10 -14 10 -18 0 -7 -20 -32 -15 -27 5 4 13 17 17 57 18 52 1 52 1 85 -49 40 -61 35 -67 -65 -67 l-71 0 14 -46 c22 -72 28 -165 13 -199 -12 -30 -12 -30 -19 28 -10 81 -44 128 -117 161 -32 15 -66 31 -75 36 -10 6 -40 10 -67 10 l-49 0 -6 -72 c-3 -40 -8 -118 -12 -173 -7 -114 -27 -222 -49 -265 -21 -41 -66 -71 -88 -59 -9 6 -17 6 -17 2 0 -13 -20 21 -20 35 0 8 5 10 13 6 6 -4 4 2 -6 14 -11 11 -16 25 -13 31 4 5 2 12 -4 16 -5 3 -10 0 -11 -7 0 -7 -5 -2 -10 12 -8 20 -12 22 -19 10 -8 -12 -10 -12 -10 4 0 12 -5 16 -14 13 -8 -3 -17 -1 -20 6 -2 7 -5 2 -5 -10 -1 -13 3 -23 9 -23 5 0 7 -7 4 -15 -11 -27 -23 -16 -26 22 -2 27 -8 39 -20 41 -13 3 -18 -3 -18 -20 0 -19 -2 -20 -11 -8 -9 12 -10 11 -6 -8 3 -12 1 -20 -4 -16 -5 3 -9 -2 -9 -11 0 -9 -7 -23 -15 -31 -13 -14 -15 -13 -15 6 0 12 5 18 10 15 6 -3 10 3 10 15 0 19 -2 20 -15 6 -20 -19 -19 -70 1 -90 14 -15 14 -16 -1 -16 -9 0 -22 15 -31 35 -29 70 5 245 60 305 30 33 82 114 103 161 10 22 23 37 31 34 6 -2 12 -1 12 4 0 13 -43 22 -54 11 -17 -17 -46 -11 -46 9 0 11 5 21 12 23 8 3 6 10 -5 24 -8 10 -63 76 -122 146 -99 118 -106 129 -103 165 l3 38 202 5 c111 3 205 9 209 13 5 5 18 5 29 1 11 -5 108 -10 216 -11z m259 -223 c8 -15 8 -20 -2 -20 -15 1 -48 24 -48 34 0 15 40 4 50 -14z m-709 -668 c-6 -2 -11 -11 -11 -20 0 -13 -3 -13 -12 -4 -9 9 -10 15 -2 20 6 4 14 16 19 27 8 20 8 20 13 0 2 -10 -1 -21 -7 -23z m89 -12 c-9 -5 -9 -9 -1 -14 6 -4 11 -12 11 -17 0 -6 -7 -3 -15 5 -13 13 -14 20 -4 38 9 16 14 19 17 9 2 -7 -1 -17 -8 -21z m-54 -35 c-3 -9 -11 -13 -17 -9 -6 3 -15 1 -19 -6 -4 -7 -13 -9 -19 -6 -19 12 -12 26 13 26 14 0 28 5 31 11 10 15 19 3 11 -16z m94 6 c0 -11 -5 -21 -11 -23 -7 -2 -1 -16 15 -32 29 -33 31 -37 14 -33 -23 4 -47 51 -41 80 6 31 23 37 23 8z m-59 -98 c-10 -17 -10 -16 -11 3 0 23 13 41 18 25 2 -6 -1 -18 -7 -28z m-51 -43 c5 0 7 8 4 18 -5 16 -5 16 6 -1 6 -10 10 -22 8 -28 -4 -12 -48 19 -48 34 0 7 5 4 11 -5 5 -10 14 -18 19 -18z m131 -25 c3 2 15 -5 29 -15 22 -17 23 -21 10 -34 -21 -20 -48 -22 -95 -7 -52 17 -59 25 -40 41 13 11 18 10 33 -4 23 -20 32 -20 32 -1 0 9 -7 18 -15 21 -8 4 -15 10 -15 15 0 5 13 3 29 -5 16 -9 30 -13 32 -11z"/>
<path d="M855 1540 c-33 -4 -116 -9 -185 -10 -101 -2 -118 -4 -86 -11 22 -5 114 -8 205 -7 140 3 166 5 166 18 0 18 -20 20 -100 10z"/>
<path d="M1048 1523 c45 -2 119 -2 165 0 45 1 8 3 -83 3 -91 0 -128 -2 -82 -3z"/>
<path d="M970 1493 c0 -5 -103 -7 -230 -5 -126 1 -230 0 -230 -3 0 -13 153 -185 160 -180 4 2 16 -3 26 -11 10 -9 12 -12 4 -8 -16 8 10 -27 42 -57 10 -9 14 -20 10 -24 -4 -5 -1 -5 5 -1 17 9 53 -11 53 -30 0 -8 4 -13 9 -9 14 8 61 -16 61 -32 0 -7 4 -13 10 -13 6 0 6 9 1 23 -4 12 -4 41 1 63 7 35 12 42 34 42 17 0 24 -5 20 -14 -3 -8 -1 -14 4 -14 5 0 9 -8 8 -17 -3 -35 2 -63 11 -63 5 0 11 10 14 23 22 94 51 177 62 177 8 0 20 -14 29 -31 13 -26 13 -29 1 -19 -8 7 -15 19 -15 28 0 23 -13 6 -16 -21 -1 -12 -7 -40 -13 -62 -7 -22 -13 -51 -15 -65 -3 -21 -2 -22 9 -7 8 12 26 17 59 17 25 0 46 5 46 10 0 6 9 2 20 -8 11 -10 40 -25 63 -33 47 -15 137 -98 137 -126 0 -11 3 -14 10 -7 7 7 4 35 -9 85 -27 105 -49 152 -67 145 -7 -3 -14 -1 -14 3 0 5 5 11 11 13 17 6 -25 83 -58 106 -32 22 -236 132 -246 132 -4 0 -7 -3 -7 -7z m19 -177 c-9 -8 -10 -7 -5 7 3 10 7 24 7 30 1 7 3 4 6 -7 3 -10 -1 -23 -8 -30z m212 12 c10 -6 7 -7 -9 -3 -22 6 -23 5 -11 -17 6 -12 17 -27 23 -31 6 -5 3 -6 -9 -2 -11 4 -26 8 -33 9 -7 1 -18 8 -25 15 -9 10 -8 11 6 5 15 -5 17 -2 13 19 -4 26 13 43 25 24 4 -5 13 -14 20 -19z m-211 -95 c-10 -16 -11 -16 -7 5 3 13 0 22 -6 22 -7 0 -5 5 3 10 19 12 26 -12 10 -37z m206 16 c3 -6 19 -9 35 -7 24 4 29 0 34 -23 5 -20 11 -26 23 -22 13 4 14 3 4 -5 -20 -13 -19 -17 3 -42 l20 -23 -28 18 c-21 13 -25 20 -15 26 7 5 9 9 3 9 -5 0 -16 -4 -24 -9 -15 -10 -67 5 -78 22 -4 7 0 8 13 4 12 -5 8 2 -11 18 -21 18 -24 24 -10 19 11 -4 29 -13 40 -21 11 -7 26 -13 33 -13 19 0 10 23 -10 26 -21 3 -67 34 -51 34 7 0 15 -5 19 -11z"/>
<path d="M1640 1715 c19 -19 36 -35 39 -35 3 0 -10 16 -29 35 -19 19 -36 35 -39 35 -3 0 10 -16 29 -35z"/>
<path d="M329 1713 l-24 -28 30 25 c17 14 32 26 34 28 2 1 0 2 -6 2 -5 0 -20 -12 -34 -27z"/>
<path d="M1740 1371 c-29 -8 -40 -48 -16 -57 27 -10 66 5 66 25 0 26 -21 39 -50 32z m30 -31 c0 -5 -9 -10 -20 -10 -11 0 -20 5 -20 10 0 6 9 10 20 10 11 0 20 -4 20 -10z"/>
<path d="M201 1342 c-8 -15 -7 -21 4 -26 10 -4 15 1 15 14 0 11 4 20 9 20 14 0 32 -26 23 -35 -4 -4 0 -6 8 -3 8 3 15 13 15 24 0 28 -60 33 -74 6z"/>
<path d="M1822 1270 c0 -19 2 -27 5 -17 2 9 2 25 0 35 -3 9 -5 1 -5 -18z"/>
<path d="M1765 1262 c-38 -5 -53 -18 -37 -34 9 -9 15 -8 24 4 7 9 24 18 38 20 14 2 21 5 15 8 -5 3 -23 4 -40 2z"/>
<path d="M190 1251 c0 -6 14 -11 30 -11 17 0 30 -4 30 -10 0 -5 -13 -10 -30 -10 -16 0 -30 -5 -30 -11 0 -6 16 -9 38 -7 32 3 37 6 37 28 0 22 -5 25 -37 28 -22 2 -38 -1 -38 -7z"/>
<path d="M1740 1170 c10 -18 9 -24 -1 -31 -11 -7 -9 -9 6 -9 35 0 65 12 65 25 0 8 -10 17 -22 20 -64 18 -61 19 -48 -5z"/>
<path d="M180 1155 c0 -6 15 -10 33 -10 20 0 31 -5 30 -12 -2 -7 2 -13 7 -13 6 0 10 10 10 23 0 20 -5 23 -40 22 -22 0 -40 -5 -40 -10z"/>
<path d="M188 1104 c-15 -14 -9 -54 8 -54 8 0 12 5 8 11 -4 7 5 9 30 6 20 -3 36 -1 36 4 0 8 -29 13 -57 10 -6 -1 -13 6 -15 15 -2 9 -6 12 -10 8z"/>
<path d="M1730 1096 c-24 -24 -11 -44 31 -48 45 -4 50 -1 43 29 -6 23 -57 36 -74 19z"/>
<path d="M208 1023 c-28 -7 -21 -26 7 -21 14 3 28 2 30 -2 3 -4 -9 -10 -26 -14 -17 -3 -28 -10 -24 -16 6 -10 53 -3 68 10 5 5 6 16 3 27 -6 19 -25 24 -58 16z"/>
<path d="M1710 1011 c0 -6 5 -13 10 -16 6 -3 10 -11 10 -16 0 -6 -4 -7 -10 -4 -5 3 -10 0 -10 -8 0 -12 7 -13 34 -7 19 4 37 5 40 2 4 -3 6 2 6 11 0 9 -11 19 -25 23 -14 3 -25 10 -25 15 0 5 -7 9 -15 9 -8 0 -15 -4 -15 -9z"/>
<path d="M228 933 c-10 -2 -18 -13 -18 -23 0 -22 26 -45 35 -30 3 5 16 10 28 11 20 0 20 1 5 12 -15 10 -15 12 0 24 15 11 14 12 -8 12 -14 -1 -33 -3 -42 -6z"/>
<path d="M1700 921 c0 -6 5 -13 11 -17 8 -4 7 -9 -2 -15 -19 -11 -8 -18 39 -25 41 -6 41 -6 33 23 -6 20 -14 28 -29 27 -12 0 -22 3 -22 8 0 4 -7 8 -15 8 -8 0 -15 -4 -15 -9z"/>
<path d="M261 845 c-43 -14 -50 -31 -17 -39 13 -3 31 -9 40 -12 19 -7 23 22 4 29 -10 4 -9 8 2 16 23 16 8 19 -29 6z"/>
<path d="M1680 821 c1 -9 69 -39 75 -33 3 3 5 13 5 21 0 12 -10 17 -40 17 -22 1 -40 -1 -40 -5z"/>
<path d="M448 272 c-6 -41 0 -52 30 -52 25 1 26 2 9 14 -14 11 -15 15 -5 19 10 4 10 8 -2 16 -10 7 -11 11 -2 11 6 0 12 5 12 10 0 6 -8 10 -19 10 -13 0 -20 -9 -23 -28z"/>
<path d="M1458 290 c-17 -10 -17 -36 -1 -64 13 -22 53 -2 53 27 0 21 -16 47 -29 47 -4 0 -14 -5 -23 -10z m32 -29 c0 -11 -4 -22 -9 -25 -11 -7 -20 14 -13 32 7 19 22 14 22 -7z"/>
<path d="M617 283 c-15 -14 -6 -24 16 -17 l22 7 -23 -19 c-14 -12 -21 -25 -17 -35 7 -19 32 -21 39 -2 3 7 0 13 -7 13 -8 0 -9 3 -1 8 19 13 24 40 8 46 -20 8 -29 8 -37 -1z"/>
<path d="M1309 288 c-7 -27 -6 -68 1 -73 6 -4 10 10 10 34 0 23 -2 41 -5 41 -3 0 -5 -1 -6 -2z"/>
<path d="M1119 253 c-7 -74 5 -99 36 -73 21 18 19 57 -4 70 -23 12 -31 13 -32 3z m31 -39 c0 -14 -4 -23 -9 -19 -11 6 -10 45 1 45 4 0 8 -12 8 -26z"/>
<path d="M800 220 c0 -16 -4 -30 -10 -30 -5 0 -10 -3 -10 -7 0 -5 14 -8 30 -8 17 0 30 3 30 8 0 4 -4 7 -10 7 -5 0 -10 14 -10 30 0 17 -4 30 -10 30 -5 0 -10 -13 -10 -30z"/>
<path d="M288 193 c28 -2 76 -2 105 0 28 2 5 3 -53 3 -58 0 -81 -1 -52 -3z"/>
<path d="M1773 193 c9 -2 25 -2 35 0 9 3 1 5 -18 5 -19 0 -27 -2 -17 -5z"/>
<path d="M957 154 c-11 -12 -8 -76 3 -69 6 3 8 18 6 31 -3 16 -1 24 6 22 6 -2 12 -14 13 -26 1 -12 5 -25 9 -29 4 -4 6 10 4 32 -3 38 -23 57 -41 39z"/>
</g>
<g id="layer108" fill="#a78257" stroke="none">
<path d="M920 1880 c-71 -49 -228 -133 -330 -175 -97 -40 -148 -79 -192 -148 -48 -72 -74 -138 -92 -232 -25 -128 -25 -194 0 -323 60 -306 51 -519 -27 -650 l-20 -34 23 5 c13 3 70 11 128 18 229 26 436 -16 543 -111 33 -29 35 -29 51 -11 32 35 135 82 223 101 95 21 278 26 408 11 39 -5 72 -7 74 -5 2 2 -3 12 -11 21 -27 31 -65 116 -78 174 -19 87 -8 255 24 363 48 160 50 388 6 536 -38 128 -124 228 -229 266 -185 68 -357 153 -411 204 -18 17 -33 30 -34 29 0 0 -26 -18 -56 -39z m45 -310 c4 -6 81 -10 198 -10 l192 0 30 -65 c17 -36 28 -65 24 -65 -4 0 -12 14 -19 30 l-12 30 -147 -1 -146 -2 100 -14 c63 -9 107 -21 120 -32 11 -9 33 -23 49 -31 31 -16 78 -78 70 -92 -3 -5 -14 -2 -23 6 -10 9 -24 16 -32 16 -10 1 -8 5 5 15 23 18 21 20 -21 28 -21 4 -33 2 -33 -4 0 -7 -12 -8 -32 -4 -32 6 -32 5 -13 -10 13 -10 30 -14 48 -11 22 5 27 2 27 -15 0 -18 -4 -21 -30 -15 -31 6 -42 -7 -15 -18 8 -3 15 -12 15 -21 0 -8 5 -15 10 -15 6 0 10 7 10 15 0 11 7 13 29 9 16 -3 38 -1 49 5 18 9 24 4 61 -52 l41 -62 -89 -3 -89 -3 14 -45 c22 -72 28 -165 13 -199 -12 -30 -12 -30 -19 28 -10 81 -44 128 -117 161 -32 15 -66 31 -75 36 -10 6 -40 10 -67 10 l-49 0 -6 -72 c-3 -40 -8 -118 -12 -173 -7 -107 -27 -223 -45 -258 -16 -29 -107 -121 -123 -123 -20 -3 -45 47 -39 79 3 15 9 27 14 27 13 0 11 -38 -2 -42 -7 -2 -2 -14 12 -29 24 -26 24 -26 44 -7 16 16 17 20 5 28 -8 5 -17 7 -21 4 -4 -2 -10 3 -13 12 -10 25 -7 36 7 28 6 -4 4 2 -6 14 -11 11 -16 25 -13 31 4 5 2 12 -4 16 -5 3 -10 0 -11 -7 0 -7 -5 -2 -10 12 -8 20 -12 22 -19 10 -8 -12 -10 -12 -10 4 0 12 -5 16 -14 13 -8 -3 -17 -1 -20 6 -2 7 -5 2 -5 -10 -1 -13 3 -23 9 -23 5 0 7 -7 4 -15 -11 -27 -23 -16 -26 22 -2 27 -8 39 -20 41 -13 3 -18 -3 -18 -20 0 -19 -2 -20 -11 -8 -9 12 -10 11 -6 -8 3 -12 1 -20 -4 -16 -5 3 -9 -2 -9 -11 0 -9 -7 -23 -15 -31 -13 -14 -15 -13 -15 6 0 12 5 18 10 15 6 -3 10 3 10 15 0 19 -2 20 -15 6 -20 -20 -19 -71 2 -91 16 -16 15 -17 -2 -13 -70 13 -50 252 28 337 30 33 82 114 104 162 10 22 23 37 31 34 6 -2 12 -1 12 4 0 13 -43 22 -54 11 -17 -17 -46 -11 -46 9 0 11 5 21 12 23 12 4 4 15 -58 87 -96 110 -167 199 -176 218 -6 12 -8 33 -4 47 l6 26 193 0 c107 0 199 5 207 10 20 13 57 13 65 0z m-254 -898 c-6 -2 -11 -11 -11 -20 0 -13 -3 -13 -12 -4 -9 9 -10 15 -2 20 6 4 14 16 19 27 8 20 8 20 13 0 2 -10 -1 -21 -7 -23z m89 -12 c-9 -5 -9 -9 -1 -14 6 -4 11 -12 11 -17 0 -6 -7 -3 -15 5 -13 13 -14 20 -4 38 9 16 14 19 17 9 2 -7 -1 -17 -8 -21z m-54 -35 c-3 -9 -11 -13 -17 -9 -6 3 -15 1 -19 -6 -4 -7 -13 -9 -19 -6 -19 12 -12 26 13 26 14 0 28 5 31 11 10 15 19 3 11 -16z m-66 -136 c7 -13 22 -35 34 -48 l21 -24 -21 13 c-25 16 -59 80 -67 130 -6 32 -5 32 7 -6 8 -23 20 -52 26 -65z m101 44 c-10 -17 -10 -16 -11 3 0 23 13 41 18 25 2 -6 -1 -18 -7 -28z m-51 -43 c5 0 7 8 4 18 -5 16 -5 16 6 -1 6 -10 10 -22 8 -28 -4 -12 -48 19 -48 34 0 7 5 4 11 -5 5 -10 14 -18 19 -18z m131 -13 c0 14 2 13 9 -4 5 -13 17 -23 25 -23 11 0 15 -7 13 -22 -2 -18 -9 -23 -35 -23 -17 0 -29 -3 -26 -7 6 -11 -4 -10 -25 2 -9 5 -30 15 -46 20 -27 10 -28 12 -13 27 15 15 18 15 35 0 23 -21 32 -21 32 -2 0 9 -7 18 -15 21 -8 4 -15 10 -15 15 0 5 14 3 30 -6 28 -14 30 -14 31 2z"/>
<path d="M970 1493 c0 -5 -103 -7 -230 -5 -126 1 -230 0 -230 -3 0 -14 151 -179 166 -181 9 -2 22 -8 28 -15 8 -9 7 -10 -4 -4 -16 9 11 -27 42 -56 10 -9 14 -20 10 -24 -4 -5 -1 -5 5 -1 17 9 53 -11 53 -30 0 -8 4 -13 9 -9 14 8 61 -16 61 -32 0 -7 4 -13 10 -13 5 0 6 9 1 22 -4 12 -4 38 0 57 4 19 6 38 3 42 -2 4 9 7 26 7 22 -1 29 -5 26 -15 -3 -7 -1 -13 4 -13 5 0 9 -8 8 -17 -3 -35 2 -63 11 -63 5 0 11 10 14 23 22 95 51 177 63 177 7 0 20 -15 29 -32 40 -82 90 -141 134 -158 56 -21 113 -69 133 -110 40 -82 19 62 -23 160 -15 35 -26 48 -40 47 -26 -2 -24 -22 4 -43 17 -13 18 -15 3 -10 -16 5 -17 4 -6 -9 7 -8 9 -15 5 -15 -5 0 0 -10 11 -22 l19 -22 -32 23 c-18 12 -36 20 -41 18 -4 -3 -23 2 -42 10 -19 8 -29 17 -22 20 8 3 5 11 -10 25 -25 21 -23 21 35 -6 21 -10 41 -15 44 -13 8 9 -7 28 -17 22 -5 -3 -26 7 -47 21 -29 20 -32 25 -13 19 14 -4 27 -12 28 -16 6 -16 52 -10 52 7 0 11 6 14 20 9 26 -8 25 -3 -6 51 -22 38 -43 53 -154 114 -130 71 -140 76 -140 63z m55 -103 c9 -16 13 -30 11 -30 -3 0 -12 14 -21 30 -9 17 -13 30 -11 30 3 0 12 -13 21 -30z m-33 -72 c-6 -6 -9 2 -7 24 4 45 7 49 12 14 3 -16 0 -33 -5 -38z m207 13 c14 -12 13 -12 -7 -6 -22 6 -22 5 -10 -17 7 -12 18 -26 23 -30 15 -11 -7 -10 -44 3 -17 6 -31 15 -31 20 0 4 7 6 16 2 13 -5 15 -2 9 18 -4 13 -13 28 -19 32 -6 5 -1 5 12 2 15 -4 22 -2 23 7 0 9 2 8 6 -2 3 -8 13 -21 22 -29z m-209 -98 c-10 -16 -11 -16 -7 5 3 13 0 22 -6 22 -7 0 -5 5 3 10 19 12 26 -12 10 -37z"/>
<path d="M1039 1313 c-12 -14 -12 -16 0 -8 11 6 13 3 7 -16 -16 -54 -27 -95 -30 -119 -3 -21 -2 -22 9 -7 8 12 26 17 59 17 25 0 46 5 46 10 0 6 -12 29 -27 53 -15 23 -32 52 -38 65 -11 21 -13 21 -26 5z"/>
<path d="M912 1218 c-12 -12 -17 -70 -6 -81 9 -9 34 19 34 37 0 8 -4 17 -10 21 -5 3 -7 12 -3 20 6 18 1 19 -15 3z"/>
<path d="M926 1124 c-9 -22 -8 -26 5 -19 6 4 17 -1 25 -11 14 -18 14 -18 12 6 -4 38 -31 53 -42 24z"/>
<path d="M1001 1103 c-1 -13 -6 -23 -13 -23 -9 0 -9 -3 0 -12 17 -17 30 2 21 32 -7 24 -7 24 -8 3z"/>
<path d="M890 1062 c0 -6 -7 -18 -16 -26 -13 -14 -13 -16 0 -16 15 0 32 37 22 47 -3 4 -6 1 -6 -5z"/>
<path d="M973 1025 c-18 -8 -33 -20 -33 -27 0 -9 3 -9 10 2 9 13 10 13 10 0 0 -13 1 -13 10 0 9 13 10 13 10 0 0 -13 1 -13 10 0 5 8 10 11 10 5 0 -11 20 16 20 28 0 10 -10 8 -47 -8z"/>
<path d="M880 991 c0 -11 -6 -22 -12 -24 -8 -3 -6 -6 5 -6 12 -1 17 7 17 24 0 14 -2 25 -5 25 -3 0 -5 -9 -5 -19z"/>
<path d="M970 941 c0 -17 4 -32 8 -35 4 -2 6 11 4 30 -5 42 -12 45 -12 5z"/>
<path d="M794 872 c5 -14 3 -22 -4 -22 -6 0 -10 -6 -7 -12 2 -7 13 -11 23 -10 13 3 16 0 9 -7 -15 -15 -55 -2 -48 15 3 8 0 14 -5 14 -12 0 -9 -52 3 -83 6 -14 10 -15 22 -6 11 9 17 9 26 0 9 -10 8 -11 -5 -6 -11 5 -18 2 -18 -6 0 -7 3 -9 7 -6 3 4 17 0 30 -8 22 -15 23 -14 23 7 0 19 -2 20 -10 8 -8 -13 -10 -13 -10 2 0 9 6 19 13 21 6 3 0 6 -15 6 -32 1 -36 12 -11 32 14 12 16 12 11 -1 -4 -11 0 -16 13 -16 12 0 19 6 17 16 -2 8 -9 15 -16 15 -14 0 -33 25 -26 36 2 4 -4 13 -13 20 -14 12 -15 11 -9 -9z"/>
<path d="M678 805 c-3 -14 -1 -25 6 -25 6 0 0 -7 -12 -16 -12 -8 -20 -20 -17 -25 3 -5 16 0 28 12 13 11 31 19 43 16 17 -3 20 0 16 15 -2 10 -8 16 -12 13 -5 -3 -11 1 -13 7 -3 7 -6 4 -7 -7 -1 -18 -1 -19 -11 -2 -5 9 -7 22 -4 27 3 6 2 10 -3 10 -5 0 -12 -11 -14 -25z"/>
</g>
<g id="layer109" fill="#847da6" stroke="none">
<path d="M920 1880 c-71 -49 -228 -133 -330 -175 -97 -40 -148 -79 -192 -148 -48 -72 -74 -138 -92 -232 -25 -128 -25 -194 0 -323 60 -306 51 -519 -27 -650 l-20 -34 23 5 c13 3 70 11 128 18 229 26 436 -16 543 -111 33 -29 35 -29 51 -11 32 35 135 82 223 101 95 21 278 26 408 11 39 -5 72 -7 74 -5 2 2 -3 12 -11 21 -27 31 -65 116 -78 174 -19 87 -8 255 24 363 48 160 50 388 6 536 -38 128 -124 228 -229 266 -185 68 -357 153 -411 204 -18 17 -33 30 -34 29 0 0 -26 -18 -56 -39z m45 -310 c4 -6 81 -10 198 -10 l192 0 30 -65 c17 -36 28 -65 24 -65 -4 0 -12 14 -19 30 l-12 30 -147 -1 -146 -2 100 -14 c63 -9 107 -21 120 -32 11 -9 33 -23 49 -31 31 -16 78 -78 70 -92 -3 -5 -14 -2 -23 6 -10 9 -24 16 -32 16 -10 1 -8 5 5 15 23 18 21 20 -21 28 -21 4 -33 2 -33 -4 0 -7 -12 -8 -32 -4 -32 6 -32 5 -13 -10 13 -10 30 -14 48 -11 22 5 27 2 27 -15 0 -18 -4 -21 -30 -15 -31 6 -42 -7 -15 -18 8 -3 15 -12 15 -21 0 -8 5 -15 10 -15 6 0 10 7 10 15 0 11 7 13 29 9 16 -3 38 -1 49 5 19 10 25 5 61 -51 30 -47 37 -64 26 -66 -8 -2 -16 -13 -16 -25 -2 -22 -2 -22 -6 1 -4 20 -10 22 -69 22 -35 0 -64 -4 -64 -9 0 -6 7 -40 16 -78 17 -72 15 -156 -5 -176 -8 -8 -11 -1 -11 30 0 49 -22 104 -52 134 -13 11 -55 37 -95 56 -55 26 -82 33 -115 31 l-43 -3 -7 -65 c-3 -36 -11 -129 -17 -208 -12 -153 -33 -230 -76 -276 l-24 -26 24 6 c15 4 25 2 25 -5 0 -6 -14 -11 -30 -11 -32 0 -62 -22 -73 -53 -10 -28 2 -64 24 -70 29 -8 24 -45 -8 -58 -44 -18 -77 -14 -135 14 -43 21 -58 35 -76 72 -12 25 -22 51 -22 57 0 6 -12 36 -26 67 -25 52 -26 60 -20 157 6 80 4 109 -7 131 -8 15 -18 61 -22 101 -8 79 11 184 46 254 11 21 19 42 19 47 0 6 -30 45 -66 88 -77 92 -89 113 -80 147 l6 26 193 0 c107 0 199 5 207 10 20 13 57 13 65 0z m537 -585 c-11 -72 -69 -210 -96 -227 -6 -4 -7 -8 -3 -8 13 0 -41 -50 -54 -50 -7 0 -10 -3 -6 -6 9 -9 -19 -34 -37 -34 -9 0 -16 -4 -16 -10 0 -5 -7 -10 -15 -10 -8 0 -15 -4 -15 -10 0 -5 -11 -10 -25 -10 -14 0 -25 -4 -25 -10 0 -5 -12 -10 -26 -10 -14 0 -23 -4 -19 -10 4 -6 -10 -10 -34 -10 -58 0 -51 15 14 29 199 45 344 221 346 421 0 62 2 71 11 52 9 -17 8 -43 0 -97z"/>
<path d="M855 1540 c-33 -4 -100 -9 -150 -10 l-90 -2 55 -9 c30 -5 107 -8 170 -7 94 2 115 6 115 18 0 18 -20 20 -100 10z"/>
<path d="M1038 1523 c34 -2 90 -2 125 0 34 2 6 3 -63 3 -69 0 -97 -1 -62 -3z"/>
<path d="M970 1493 c0 -5 -103 -7 -230 -5 -126 1 -230 0 -230 -3 0 -14 155 -183 160 -175 7 12 30 -11 50 -48 6 -13 14 -21 17 -18 4 3 12 -3 20 -14 8 -11 19 -20 24 -20 6 0 22 -9 35 -19 36 -28 57 -20 69 25 8 32 14 38 32 36 18 -3 26 6 42 42 12 25 21 54 21 65 0 12 5 21 11 21 8 0 10 -16 6 -50 -5 -40 -3 -50 8 -50 8 0 15 3 14 8 -1 4 2 17 6 30 12 36 38 25 63 -27 36 -77 77 -127 109 -134 44 -9 108 -56 138 -101 l27 -41 -6 53 c-4 29 -11 63 -15 75 -35 90 -44 106 -62 104 -26 -2 -24 -22 4 -43 17 -13 18 -15 3 -10 -16 5 -17 4 -6 -9 7 -8 9 -15 5 -15 -5 0 0 -10 11 -22 l19 -22 -32 23 c-18 12 -36 20 -41 18 -4 -3 -23 2 -42 10 -19 8 -29 17 -22 20 8 3 5 11 -10 25 -25 21 -23 21 35 -6 21 -10 41 -15 44 -13 8 9 -7 28 -17 22 -5 -3 -26 7 -47 21 -29 20 -32 25 -13 19 14 -4 27 -12 28 -16 6 -16 52 -10 52 7 0 11 6 14 20 9 26 -8 25 -3 -6 51 -22 38 -43 53 -154 114 -130 71 -140 76 -140 63z m55 -103 c9 -16 13 -30 11 -30 -3 0 -12 14 -21 30 -9 17 -13 30 -11 30 3 0 12 -13 21 -30z m174 -59 c14 -12 13 -12 -7 -6 -22 6 -22 5 -10 -17 7 -12 18 -26 23 -30 15 -11 -7 -10 -44 3 -17 6 -31 15 -31 20 0 4 7 6 16 2 13 -5 15 -2 9 18 -4 13 -13 28 -19 32 -6 5 -1 5 12 2 15 -4 22 -2 23 7 0 9 2 8 6 -2 3 -8 13 -21 22 -29z"/>
<path d="M1360 1269 c0 -6 -10 -10 -22 -9 -36 3 -40 1 -25 -15 9 -8 24 -12 38 -9 13 3 38 5 56 5 17 -1 34 3 38 9 4 6 -6 10 -24 10 -16 0 -33 5 -36 10 -8 13 -25 13 -25 -1z"/>
<path d="M1720 1355 c-16 -20 -6 -45 19 -45 32 0 51 11 51 30 0 30 -49 41 -70 15z m48 -21 c-9 -9 -21 -13 -27 -10 -20 13 -11 26 16 26 25 0 26 -1 11 -16z"/>
<path d="M213 1354 c-16 -7 -17 -30 -2 -39 6 -4 9 0 7 11 -2 13 3 19 17 19 13 0 19 -6 19 -18 -1 -10 3 -16 10 -14 6 2 11 12 11 23 0 19 -35 29 -62 18z"/>
<path d="M190 1251 c0 -6 14 -11 30 -11 41 0 38 -20 -2 -21 l-33 -1 30 -7 c40 -10 57 -3 53 23 -2 16 -11 22 -40 24 -22 2 -38 -1 -38 -7z"/>
<path d="M1727 1254 c-8 -8 3 -34 14 -34 5 0 9 6 9 14 0 9 13 16 33 19 29 3 28 4 -9 5 -22 1 -43 -1 -47 -4z"/>
<path d="M1746 1168 c4 -13 1 -24 -7 -29 -20 -12 12 -12 45 1 35 13 33 25 -9 38 -34 10 -35 9 -29 -10z"/>
<path d="M180 1075 c0 -14 5 -25 10 -25 6 0 10 4 10 9 0 6 17 12 38 14 l37 4 -37 1 c-21 1 -38 7 -38 12 0 6 -4 10 -10 10 -5 0 -10 -11 -10 -25z"/>
<path d="M1726 1084 c-9 -24 2 -34 40 -34 30 0 34 3 34 25 0 22 -4 25 -34 25 -22 0 -36 -6 -40 -16z"/>
<path d="M190 1010 c0 -6 13 -8 29 -5 40 7 51 -14 12 -21 -17 -4 -31 -10 -31 -15 0 -7 58 5 68 15 2 3 2 12 -1 21 -7 17 -77 22 -77 5z"/>
<path d="M1718 1003 c14 -6 16 -33 2 -33 -5 0 -10 -4 -10 -10 0 -5 6 -8 13 -6 6 3 24 7 40 10 15 4 27 11 27 17 0 6 -9 9 -20 6 -11 -3 -18 -2 -15 3 5 8 -19 21 -38 19 -8 0 -8 -2 1 -6z"/>
<path d="M228 933 c-19 -5 -25 -38 -9 -47 5 -3 24 -3 41 1 31 6 32 7 14 20 -16 12 -17 15 -4 23 12 8 11 10 -5 9 -11 -1 -28 -3 -37 -6z"/>
<path d="M1700 920 c0 -5 8 -14 18 -19 16 -10 16 -10 -1 -11 -28 0 -11 -17 23 -22 35 -5 44 3 35 33 -5 14 -13 19 -26 16 -10 -3 -22 -1 -25 4 -7 12 -24 12 -24 -1z"/>
<path d="M243 840 c-33 -14 -28 -24 17 -37 41 -11 49 -6 28 15 -10 10 -10 15 2 22 12 8 11 10 -5 9 -11 0 -30 -4 -42 -9z"/>
<path d="M1680 818 c0 -5 9 -8 19 -8 11 0 26 -7 34 -15 13 -13 16 -13 21 1 10 27 7 30 -34 30 -22 -1 -40 -4 -40 -8z"/>
<path d="M450 260 c0 -34 3 -40 22 -40 21 0 21 0 2 15 -19 14 -19 14 1 15 20 1 20 1 1 12 -19 11 -19 11 -1 24 18 13 18 14 -3 14 -19 0 -22 -6 -22 -40z"/>
<path d="M1460 285 c-7 -8 -10 -25 -6 -40 9 -34 43 -34 52 0 6 24 -9 55 -26 55 -4 0 -13 -7 -20 -15z m35 -15 c4 -6 1 -18 -6 -26 -14 -17 -31 0 -22 23 6 16 19 17 28 3z"/>
<path d="M617 276 c-4 -10 0 -12 15 -8 21 5 21 5 -1 -17 -22 -22 -21 -41 4 -41 8 0 17 5 21 12 5 8 2 9 -9 5 -22 -8 -22 2 0 18 9 7 14 19 10 29 -8 20 -33 21 -40 2z"/>
<path d="M1313 250 c0 -25 2 -35 4 -22 2 12 2 32 0 45 -2 12 -4 2 -4 -23z"/>
<path d="M1120 215 c0 -49 1 -50 31 -35 34 19 15 80 -25 80 -3 0 -6 -20 -6 -45z m35 0 c0 -10 -6 -20 -12 -22 -8 -3 -13 5 -13 22 0 17 5 25 13 23 6 -3 12 -13 12 -23z"/>
<path d="M800 221 c0 -16 -6 -32 -12 -34 -7 -3 3 -5 22 -5 19 0 29 2 23 5 -7 2 -13 18 -13 34 0 16 -4 29 -10 29 -5 0 -10 -13 -10 -29z"/>
<path d="M293 193 c26 -2 68 -2 95 0 26 2 4 3 -48 3 -52 0 -74 -1 -47 -3z"/>
<path d="M957 154 c-4 -4 -6 -23 -6 -43 l2 -36 6 33 c3 18 11 33 16 33 6 0 13 -15 17 -33 6 -31 6 -31 5 7 -2 38 -21 57 -40 39z"/>
</g>
<g id="layer110" fill="#fad310" stroke="none">
<path d="M965 1911 c-17 -28 -281 -170 -409 -221 -111 -44 -198 -162 -243 -330 -26 -98 -24 -275 6 -425 18 -91 24 -155 24 -265 1 -157 -12 -223 -59 -309 l-24 -43 23 6 c64 16 233 28 322 22 157 -9 269 -46 348 -116 l34 -29 22 23 c33 35 148 85 236 101 82 16 297 19 400 6 33 -5 61 -8 62 -7 1 1 -11 22 -27 47 -79 127 -94 318 -39 502 30 101 39 169 40 292 1 197 -45 346 -137 438 -47 48 -83 69 -190 108 -108 39 -303 139 -340 174 -41 39 -41 39 -49 26z m0 -341 c4 -6 81 -10 198 -10 l192 0 47 -92 c26 -51 46 -94 44 -96 -2 -1 -19 23 -38 55 l-34 58 -139 1 c-99 1 -127 -1 -95 -6 25 -5 64 -9 87 -9 27 -1 51 -9 70 -24 15 -12 41 -29 57 -37 16 -8 35 -24 43 -35 23 -32 123 -188 123 -192 0 -1 -7 -3 -15 -3 -8 0 -16 -10 -16 -22 l-2 -23 -4 23 c-4 20 -10 22 -69 22 -35 0 -64 -4 -64 -9 0 -6 7 -40 16 -78 17 -72 15 -156 -5 -176 -8 -8 -11 -1 -11 30 0 49 -22 104 -52 134 -13 11 -55 37 -95 56 -55 26 -82 33 -115 31 l-43 -3 -7 -65 c-3 -36 -11 -129 -17 -208 -12 -153 -33 -230 -76 -276 l-24 -26 24 6 c15 4 25 2 25 -5 0 -6 -12 -11 -26 -11 -14 0 -32 -6 -40 -14 -7 -8 -18 -16 -23 -18 -19 -6 -17 -88 2 -88 52 -1 39 -50 -18 -67 -30 -9 -47 -9 -87 5 -65 20 -102 59 -123 124 -9 29 -25 70 -36 91 -17 30 -20 54 -19 135 1 63 -4 111 -13 137 -23 63 -29 190 -13 260 16 72 36 125 54 144 10 10 10 16 0 30 -29 37 -114 136 -122 143 -5 3 -10 26 -10 50 l-1 43 195 3 c109 1 199 7 204 12 13 13 63 13 71 0z m537 -585 c-11 -72 -69 -210 -96 -227 -6 -4 -7 -8 -3 -8 13 0 -41 -50 -54 -50 -7 0 -10 -3 -6 -6 9 -9 -19 -34 -37 -34 -9 0 -16 -4 -16 -10 0 -5 -7 -10 -15 -10 -8 0 -15 -4 -15 -10 0 -5 -11 -10 -25 -10 -14 0 -25 -4 -25 -10 0 -5 -12 -10 -26 -10 -14 0 -23 -4 -19 -10 4 -6 -10 -10 -34 -10 -58 0 -51 15 14 29 199 45 344 221 346 421 0 62 2 71 11 52 9 -17 8 -43 0 -97z"/>
<path d="M638 1253 c-45 -77 -60 -234 -31 -325 17 -55 33 -76 33 -43 0 8 13 29 28 47 67 79 128 189 118 213 -5 14 -9 16 -18 7 -7 -7 -21 -12 -31 -12 -16 0 -18 5 -14 29 5 24 0 38 -26 70 -18 22 -34 40 -37 40 -3 1 -13 -11 -22 -26z"/>
</g>
<g id="layer111" fill="#969da9" stroke="none">
<path d="M965 1911 c-17 -28 -281 -170 -409 -221 -111 -44 -198 -162 -243 -330 -26 -98 -24 -275 6 -425 18 -91 24 -155 24 -265 1 -157 -12 -223 -59 -309 l-24 -43 23 6 c64 16 233 28 322 22 157 -9 269 -46 348 -116 l34 -29 22 23 c33 35 148 85 236 101 82 16 297 19 400 6 33 -5 61 -8 62 -7 1 1 -11 22 -27 47 -79 127 -94 318 -39 502 30 101 39 169 40 292 1 197 -45 346 -137 438 -47 48 -83 69 -190 108 -108 39 -303 139 -340 174 -41 39 -41 39 -49 26z m0 -341 c4 -6 81 -10 198 -10 l192 0 47 -92 c26 -51 46 -94 44 -96 -2 -1 -19 23 -38 55 l-34 58 -139 1 c-99 1 -127 -1 -95 -6 25 -5 64 -9 87 -9 27 -1 51 -9 70 -24 15 -12 41 -29 57 -37 16 -8 35 -24 43 -35 23 -32 123 -188 123 -192 0 -1 -6 -3 -14 -3 -22 0 -28 -57 -9 -87 25 -39 5 -159 -43 -255 -20 -40 -42 -76 -48 -80 -6 -4 -7 -8 -3 -8 13 0 -41 -50 -54 -50 -7 0 -10 -3 -6 -6 9 -9 -19 -34 -37 -34 -9 0 -16 -4 -16 -10 0 -5 -7 -10 -15 -10 -8 0 -15 -4 -15 -10 0 -5 -11 -10 -25 -10 -14 0 -25 -4 -25 -10 0 -5 -12 -10 -26 -10 -14 0 -23 -4 -20 -8 3 -5 -50 -8 -118 -8 -102 1 -125 -2 -139 -16 -9 -9 -21 -18 -26 -20 -19 -6 -17 -88 2 -88 52 -1 39 -50 -18 -67 -30 -9 -47 -9 -87 5 -65 20 -102 59 -123 124 -9 29 -25 70 -36 91 -17 30 -20 54 -19 135 1 63 -4 111 -13 137 -23 63 -29 190 -13 260 16 72 36 125 54 144 10 10 10 16 0 30 -29 37 -114 136 -122 143 -5 3 -10 26 -10 50 l-1 43 195 3 c109 1 199 7 204 12 13 13 63 13 71 0z"/>
<path d="M907 1544 c-8 -9 -33 -11 -152 -14 -93 -3 -96 -3 -45 -10 100 -14 237 -12 243 4 3 8 3 17 0 20 -8 8 -38 8 -46 0z"/>
<path d="M1023 1523 c26 -2 68 -2 95 0 26 2 4 3 -48 3 -52 0 -74 -1 -47 -3z"/>
<path d="M970 1489 c0 -6 8 -23 19 -37 22 -33 53 -92 47 -92 -2 0 -21 29 -42 65 l-38 65 -224 0 c-183 0 -222 -2 -215 -13 24 -40 148 -175 153 -166 7 11 31 -13 50 -49 6 -13 14 -21 17 -18 4 3 12 -3 20 -14 8 -11 19 -20 24 -20 6 0 22 -9 35 -19 36 -28 57 -20 69 25 8 32 14 38 32 36 18 -3 26 6 42 42 12 25 21 54 21 65 0 12 5 21 11 21 8 0 10 -16 6 -50 -5 -40 -3 -50 8 -50 8 0 15 3 14 8 -1 4 2 17 6 30 12 37 38 25 65 -30 39 -81 75 -124 107 -131 44 -9 108 -56 137 -100 25 -39 26 -40 26 -15 0 27 -43 174 -57 194 -9 12 -43 15 -43 3 0 -4 5 -11 11 -14 6 -4 8 -13 5 -20 -2 -7 1 -18 7 -24 6 -6 7 -11 2 -11 -4 0 0 -9 11 -21 19 -21 19 -21 -9 -8 -15 7 -27 16 -27 20 0 4 -8 7 -18 6 -23 -1 -82 23 -82 34 0 5 8 6 18 2 11 -4 8 1 -8 15 l-25 22 28 -10 c37 -13 35 5 -3 25 -16 9 -30 17 -30 19 0 3 14 -1 30 -7 17 -6 30 -15 30 -19 0 -15 41 -8 46 7 4 10 13 13 25 10 15 -5 17 -3 12 12 -24 64 -47 84 -174 153 -72 38 -132 70 -135 70 -2 0 -4 -5 -4 -11z m198 -139 c2 0 0 5 -3 10 -3 6 -1 10 4 10 6 0 11 -7 11 -15 0 -7 8 -19 18 -25 16 -11 16 -11 -1 -6 -15 5 -17 2 -11 -17 4 -12 12 -25 18 -29 17 -12 -6 -10 -43 3 -17 6 -31 15 -31 20 0 4 6 6 14 3 10 -4 12 2 9 20 -4 17 -12 26 -24 26 -10 0 -20 4 -24 9 -3 6 7 6 27 0 18 -5 34 -9 36 -9z"/>
<path d="M1320 1380 c0 -8 -11 -9 -32 -5 -32 6 -32 5 -13 -10 13 -10 30 -14 48 -11 22 5 27 2 27 -15 0 -18 -4 -21 -30 -15 -31 6 -42 -7 -15 -18 8 -3 15 -12 15 -21 0 -8 5 -15 10 -15 6 0 10 7 10 15 0 11 7 13 29 9 16 -3 37 -1 48 5 16 10 17 10 1 11 -10 0 -18 4 -18 9 0 5 -10 13 -22 17 -20 6 -20 8 -5 19 20 15 22 22 5 22 -7 0 -23 3 -35 7 -15 5 -23 3 -23 -4z"/>
<path d="M1049 1293 c0 -5 -3 -17 -6 -28 -17 -71 -17 -75 13 -76 33 -1 67 1 72 6 6 5 -60 105 -69 105 -5 0 -9 -3 -10 -7z"/>
<path d="M1360 1265 c0 -11 -5 -12 -24 -5 -29 11 -40 3 -22 -16 8 -7 24 -11 37 -8 13 3 38 5 56 5 17 -1 34 3 38 9 4 6 -6 10 -24 10 -16 0 -33 5 -36 10 -9 15 -25 12 -25 -5z"/>
<path d="M1226 1222 c-3 -6 -1 -14 5 -17 15 -10 25 3 12 16 -7 7 -13 7 -17 1z"/>
<path d="M650 579 c0 -5 4 -8 9 -5 5 4 7 -3 4 -13 -6 -24 34 -108 61 -127 24 -17 38 -7 14 10 -14 10 -11 12 20 13 21 1 45 -6 55 -14 9 -9 17 -11 17 -6 0 6 -7 13 -15 17 -8 3 -15 12 -15 20 0 8 -8 17 -19 21 -13 4 -17 12 -13 32 4 19 2 24 -8 18 -8 -5 -10 -20 -6 -45 l6 -37 -33 15 c-19 8 -34 20 -35 26 -11 71 -16 86 -28 86 -8 0 -14 -5 -14 -11z"/>
<path d="M1721 1351 c-14 -25 10 -45 44 -37 44 11 28 56 -20 56 -8 0 -19 -9 -24 -19z m57 -6 c10 -10 -16 -28 -32 -22 -25 10 -20 37 5 32 12 -3 24 -7 27 -10z"/>
<path d="M213 1353 c-16 -6 -17 -29 -2 -38 6 -4 9 0 7 11 -2 13 3 19 17 19 13 0 20 -6 19 -17 -2 -22 15 -23 23 -2 10 25 -29 42 -64 27z"/>
<path d="M245 1241 c5 -16 0 -20 -22 -24 -23 -3 -21 -4 10 -6 30 -1 37 2 37 18 0 10 -7 22 -16 25 -12 4 -14 1 -9 -13z"/>
<path d="M1744 1159 c1 -32 4 -33 40 -19 35 13 33 25 -7 37 -33 10 -34 10 -33 -18z"/>
<path d="M189 1100 c0 -3 -2 -13 -4 -22 -2 -10 1 -20 6 -24 5 -3 9 0 9 5 0 6 15 12 33 12 l32 2 -30 4 c-16 3 -33 10 -37 16 -4 7 -8 10 -9 7z"/>
<path d="M1732 1078 c2 -18 11 -24 36 -26 29 -3 32 -1 32 22 0 23 -4 26 -36 26 -31 0 -35 -3 -32 -22z"/>
<path d="M1718 1003 c6 -2 12 -11 12 -18 0 -7 -6 -16 -12 -18 -7 -3 -2 -6 11 -6 17 -1 22 3 17 14 -3 8 -1 15 4 15 6 0 10 -7 10 -15 0 -9 6 -12 15 -9 23 9 18 19 -18 32 -32 11 -66 16 -39 5z"/>
<path d="M233 933 c-24 -5 -29 -19 -15 -41 6 -8 19 -10 40 -6 30 6 31 8 15 20 -16 12 -16 15 -3 24 13 9 13 10 0 8 -8 0 -25 -3 -37 -5z"/>
<path d="M1700 921 c0 -5 8 -12 18 -16 16 -7 15 -8 -3 -15 -17 -7 -15 -9 15 -17 23 -7 37 -6 42 1 10 15 -10 46 -26 40 -8 -3 -17 -1 -21 5 -8 13 -25 14 -25 2z"/>
<path d="M243 838 c-13 -6 -23 -14 -23 -18 0 -10 70 -23 78 -16 3 3 0 6 -7 6 -8 0 -11 8 -8 20 6 22 -6 24 -40 8z"/>
<path d="M1715 820 c-23 -6 -25 -8 -8 -9 12 0 27 -9 32 -18 6 -10 11 -13 11 -6 0 6 3 18 6 27 7 17 4 18 -41 6z"/>
<path d="M450 260 c0 -34 3 -40 22 -40 21 0 21 0 2 15 -19 14 -19 14 1 15 18 1 19 1 3 11 -10 5 -18 14 -18 19 0 5 8 11 18 13 13 4 11 5 -5 6 -20 1 -23 -4 -23 -39z"/>
<path d="M625 280 c-3 -5 2 -10 12 -10 17 -1 17 -1 1 -11 -22 -12 -24 -49 -4 -49 8 0 18 5 22 12 5 8 2 9 -9 5 -22 -8 -22 2 0 18 9 7 14 19 10 29 -7 18 -23 21 -32 6z"/>
<path d="M1455 279 c-4 -5 -4 -21 -1 -35 7 -25 30 -32 42 -12 5 7 3 8 -6 3 -16 -10 -31 14 -24 38 6 19 -1 23 -11 6z"/>
<path d="M1120 215 c0 -46 4 -52 30 -35 13 8 12 10 -2 10 -12 0 -18 8 -18 25 0 17 6 25 18 25 14 0 15 2 2 10 -26 17 -30 11 -30 -35z"/>
<path d="M288 193 c18 -2 45 -2 60 0 15 2 0 4 -33 4 -33 0 -45 -2 -27 -4z"/>
</g>
<g id="layer112" fill="#7e9cc7" stroke="none">
<path d="M965 1911 c-17 -28 -281 -170 -409 -221 -111 -44 -198 -162 -243 -330 -26 -98 -24 -275 6 -425 18 -91 24 -155 24 -265 1 -157 -12 -223 -59 -309 l-24 -43 23 6 c64 16 233 28 322 22 157 -9 269 -46 348 -116 l34 -29 22 23 c33 35 148 85 236 101 82 16 297 19 400 6 33 -5 61 -8 62 -7 1 1 -11 22 -27 47 -79 127 -94 318 -39 502 30 101 39 169 40 292 1 197 -45 346 -137 438 -47 48 -83 69 -190 108 -108 39 -303 139 -340 174 -41 39 -41 39 -49 26z m-110 -341 c-3 -5 1 -10 9 -10 9 0 16 5 16 10 0 6 23 10 51 10 37 0 48 -3 43 -12 -5 -8 0 -7 11 2 11 9 16 10 11 3 -6 -10 32 -13 177 -13 l184 0 23 -50 c13 -27 27 -50 32 -50 5 0 6 -4 3 -10 -3 -5 -1 -10 5 -10 6 0 8 -4 5 -10 -3 -5 -2 -10 3 -10 5 0 15 -13 22 -30 7 -16 17 -30 22 -30 5 0 7 -4 4 -9 -4 -5 0 -12 6 -14 8 -3 6 -6 -4 -6 -10 -1 -24 13 -34 32 -9 17 -30 53 -48 79 l-31 47 -130 0 c-96 -1 -120 -3 -90 -10 22 -4 61 -8 88 -8 35 -1 53 -7 69 -23 13 -13 36 -30 53 -38 41 -21 173 -219 153 -231 -10 -7 -10 -9 2 -9 13 0 13 -1 0 -10 -8 -5 -10 -10 -4 -10 7 0 15 -11 18 -25 10 -38 -14 -195 -35 -237 -11 -21 -19 -44 -19 -53 0 -8 -4 -15 -10 -15 -5 0 -10 -7 -10 -16 0 -8 -6 -21 -12 -28 -7 -8 -20 -23 -28 -36 -34 -50 -64 -80 -79 -80 -9 0 -23 -9 -31 -20 -8 -11 -25 -20 -37 -20 -13 0 -23 -4 -23 -10 0 -5 -7 -10 -15 -10 -8 0 -15 -4 -15 -10 0 -5 -26 -10 -57 -10 -41 0 -54 -3 -43 -10 11 -7 1 -10 -35 -9 -27 0 -44 3 -37 6 6 2 10 9 6 14 -9 14 -44 10 -50 -6 -7 -17 -44 -21 -44 -5 0 6 -8 10 -19 10 -12 0 -25 -15 -39 -48 -20 -46 -20 -47 -1 -50 11 -2 17 -8 14 -13 -4 -5 -1 -9 5 -9 6 0 10 -12 8 -28 -2 -22 -11 -29 -47 -41 -40 -13 -50 -12 -99 5 -31 10 -60 24 -66 32 -6 7 -20 23 -32 35 -11 13 -18 29 -16 36 3 9 0 11 -9 6 -8 -5 -11 -5 -7 0 4 4 1 22 -7 40 -7 19 -10 37 -7 41 4 4 2 4 -5 1 -16 -10 -43 77 -41 131 1 23 5 42 9 42 14 0 16 75 2 103 -25 51 -36 203 -20 277 17 75 37 129 55 148 15 16 -1 41 -71 115 -25 26 -43 47 -39 47 4 0 1 4 -7 9 -8 5 -15 27 -15 53 l-1 43 134 7 c73 4 136 10 139 13 10 10 93 5 87 -5z"/>
<path d="M520 1482 c0 -13 132 -167 144 -168 6 -1 16 -2 22 -3 6 0 18 -17 28 -37 9 -20 20 -34 23 -30 3 3 12 -3 20 -14 8 -11 19 -20 24 -20 6 0 22 -9 35 -19 13 -11 32 -18 41 -17 20 3 36 51 28 84 -3 12 -1 22 5 22 5 0 10 -7 10 -15 0 -21 41 -19 46 3 3 9 5 21 4 25 0 4 6 15 15 23 8 9 15 26 15 40 0 13 5 24 11 24 8 0 10 -16 6 -50 -5 -42 -3 -50 10 -50 9 0 13 3 10 7 -4 3 -3 11 2 17 13 18 20 55 10 61 -4 3 -22 33 -40 65 l-32 60 -218 0 c-121 0 -219 -4 -219 -8z"/>
<path d="M1320 1379 c0 -7 -12 -8 -32 -4 -31 6 -32 5 -13 -10 13 -10 29 -13 47 -9 24 5 28 2 28 -16 0 -20 -4 -22 -30 -16 -31 6 -42 -7 -14 -18 11 -4 14 -13 11 -27 -8 -30 2 -51 22 -44 9 3 36 7 60 9 51 5 67 16 23 16 -17 0 -34 5 -37 10 -9 15 -25 12 -25 -4 0 -10 -7 -12 -22 -8 -12 3 -17 7 -10 10 6 2 12 10 12 18 0 10 7 13 23 9 12 -3 34 -2 47 4 14 5 19 10 12 10 -8 1 -25 10 -38 20 -22 17 -23 21 -8 29 14 8 11 11 -16 21 -40 14 -40 14 -40 0z"/>
<path d="M1758 1360 c12 -5 22 -14 22 -20 0 -17 -29 -23 -45 -10 -9 7 -18 11 -20 8 -12 -12 26 -30 50 -24 43 11 27 58 -18 55 -7 0 -2 -4 11 -9z"/>
<path d="M213 1353 c-15 -5 -17 -29 -4 -37 5 -3 8 2 7 12 -1 11 7 18 23 20 20 3 23 0 18 -17 -5 -22 7 -29 18 -11 15 25 -28 47 -62 33z"/>
<path d="M245 1241 c5 -16 0 -21 -22 -24 -22 -4 -20 -5 7 -3 38 1 54 28 25 40 -13 4 -15 1 -10 -13z"/>
<path d="M1730 1246 c0 -8 5 -18 12 -22 7 -5 9 -2 5 9 -5 12 2 17 31 20 l37 4 -42 1 c-32 2 -43 -2 -43 -12z"/>
<path d="M1744 1160 c1 -33 9 -36 46 -15 l25 13 -29 12 c-16 6 -32 13 -36 15 -4 2 -7 -9 -6 -25z"/>
<path d="M205 1153 c17 -2 36 -12 43 -21 11 -14 12 -13 12 6 0 19 -5 22 -42 21 -34 -2 -37 -3 -13 -6z"/>
<path d="M1730 1090 c0 -5 7 -7 16 -3 13 5 15 2 9 -15 -5 -19 -2 -22 20 -22 22 0 26 4 23 22 -2 17 -11 23 -35 25 -18 2 -33 -2 -33 -7z"/>
<path d="M230 1011 c14 -4 24 -13 23 -19 -2 -7 2 -12 8 -12 6 0 9 8 7 18 -2 11 -14 18 -33 19 -28 2 -29 1 -5 -6z"/>
<path d="M1718 1003 c6 -2 12 -11 12 -18 0 -7 -6 -16 -12 -18 -7 -3 -2 -6 11 -6 17 -1 22 3 17 14 -3 8 -1 15 4 15 6 0 10 -4 10 -10 0 -5 7 -10 15 -10 26 0 16 16 -18 28 -32 11 -66 16 -39 5z"/>
<path d="M233 930 c-25 -10 -27 -18 -15 -38 6 -8 19 -10 40 -6 30 6 31 8 15 20 -16 12 -16 15 -3 24 13 9 13 10 0 9 -8 0 -25 -4 -37 -9z"/>
<path d="M1700 921 c0 -5 7 -11 15 -15 8 -3 12 -12 9 -21 -5 -11 1 -15 20 -15 14 0 26 4 26 10 0 5 -7 7 -16 3 -12 -4 -15 -2 -12 8 3 8 11 13 17 11 7 -1 10 2 6 8 -3 6 -10 8 -15 5 -5 -3 -19 -1 -30 5 -11 6 -20 7 -20 1z"/>
<path d="M245 836 l-30 -14 28 -11 c35 -14 69 -15 48 -2 -8 5 -11 16 -8 25 8 19 2 19 -38 2z"/>
<path d="M1715 820 l-30 -8 28 -1 c15 0 27 -7 27 -13 0 -14 20 11 20 25 0 8 -3 8 -45 -3z"/>
<path d="M450 260 c0 -35 3 -40 23 -39 16 1 18 2 5 6 -10 2 -18 8 -18 13 0 5 8 11 18 13 16 4 16 5 0 6 -10 0 -18 7 -18 15 0 8 8 17 18 19 13 4 11 5 -5 6 -20 1 -23 -4 -23 -39z"/>
<path d="M1481 295 c0 -5 6 -19 14 -29 8 -11 15 -15 15 -10 0 6 -7 19 -15 30 -8 10 -14 15 -14 9z"/>
<path d="M624 278 c-4 -6 -3 -8 4 -4 6 3 13 2 17 -4 3 -6 -1 -13 -9 -16 -20 -8 -21 -44 -2 -44 8 0 18 5 22 12 5 8 2 9 -9 5 -22 -8 -22 2 0 18 9 7 14 19 10 29 -7 19 -23 21 -33 4z"/>
<path d="M1312 250 c0 -19 2 -27 5 -17 2 9 2 25 0 35 -3 9 -5 1 -5 -18z"/>
<path d="M1120 214 c0 -45 4 -51 30 -34 13 8 12 10 -2 10 -24 0 -24 47 0 52 14 3 13 5 -5 10 -21 6 -23 3 -23 -38z"/>
<path d="M790 190 c-11 -7 -6 -10 20 -10 26 0 31 3 20 10 -8 5 -17 10 -20 10 -3 0 -12 -5 -20 -10z"/>
<path d="M956 145 c-3 -9 -5 -29 -5 -43 1 -24 2 -24 8 6 3 18 11 33 16 33 6 0 13 -15 17 -33 6 -31 6 -31 5 7 -2 42 -28 62 -41 30z"/>
</g>
<g id="layer113" fill="#d2bda6" stroke="none">
<path d="M912 1868 c-41 -26 -75 -48 -77 -48 -2 0 -26 -13 -52 -28 -26 -16 -100 -50 -163 -77 -97 -41 -124 -57 -170 -104 -76 -77 -128 -188 -148 -316 -15 -93 -14 -199 2 -261 41 -158 55 -421 31 -554 -5 -28 -35 -99 -63 -152 -1 -3 16 -1 40 5 24 6 126 11 228 11 169 0 191 -2 255 -23 39 -13 87 -36 109 -50 101 -67 89 -63 106 -42 23 29 112 70 200 92 108 26 403 32 467 8 21 -8 22 -7 11 19 -7 15 -17 34 -24 42 -22 27 -52 133 -59 205 -8 83 8 208 36 288 11 32 18 64 15 72 -2 8 0 15 7 18 9 3 12 51 12 173 0 229 -27 328 -118 436 -43 51 -102 84 -292 163 -126 52 -235 114 -262 148 l-18 24 -73 -49z m42 -265 c3 -7 11 -13 18 -13 10 0 10 2 0 9 -22 14 14 17 113 12 78 -4 84 -6 45 -12 -44 -6 -43 -6 20 -8 46 -2 58 -5 40 -10 -21 -6 -18 -8 24 -14 27 -4 71 -7 98 -7 46 0 86 -19 71 -34 -4 -3 -1 -6 6 -6 8 0 11 -8 9 -18 -4 -12 5 -27 23 -41 16 -13 27 -27 24 -31 -8 -12 6 -41 16 -34 5 3 6 -1 3 -9 -3 -8 0 -18 7 -23 8 -5 10 -3 4 6 -5 9 -4 11 4 6 6 -4 9 -12 5 -17 -3 -6 8 -28 26 -50 18 -22 29 -43 26 -46 -3 -4 -6 -1 -6 6 0 7 -3 10 -8 7 -14 -9 -38 20 -97 117 l-59 97 -131 -1 c-96 -1 -120 -3 -90 -10 22 -4 61 -8 88 -8 35 -1 53 -7 69 -23 13 -13 36 -30 53 -38 19 -9 53 -50 91 -108 33 -51 70 -101 82 -112 25 -23 30 -39 7 -20 -13 11 -14 10 -9 -5 6 -14 4 -16 -7 -10 -12 7 -12 6 -1 -7 7 -9 15 -46 18 -82 6 -67 -8 -132 -42 -197 -8 -16 -11 -39 -8 -58 4 -19 2 -31 -4 -31 -6 0 -12 10 -15 23 -3 20 -4 19 -12 -8 -9 -33 -27 -55 -45 -55 -6 0 -9 -4 -6 -9 3 -5 -1 -22 -9 -37 -8 -16 -15 -22 -15 -14 -1 10 -5 7 -13 -8 -7 -12 -16 -20 -19 -16 -4 3 -20 -7 -36 -23 -45 -47 -157 -105 -205 -107 -23 -1 -60 -8 -83 -15 -35 -11 -45 -11 -72 3 -37 19 -42 20 -42 5 0 -5 4 -8 8 -5 5 3 9 -1 9 -9 0 -8 -4 -15 -9 -15 -4 0 -8 5 -8 11 0 5 -5 7 -11 3 -8 -4 -9 1 -4 17 4 13 4 21 0 17 -4 -4 -9 -19 -10 -33 -3 -20 1 -25 18 -25 18 0 19 -2 7 -10 -8 -5 -10 -10 -4 -10 7 0 14 -13 16 -29 2 -17 2 -30 -1 -29 -19 2 -24 -4 -11 -12 23 -14 -121 -6 -148 9 -13 7 -30 10 -38 7 -9 -3 -12 -1 -9 4 3 6 -1 10 -10 10 -9 0 -13 4 -10 10 3 6 2 10 -4 10 -5 0 -13 9 -16 20 -4 11 -11 17 -17 14 -7 -5 -9 0 -6 14 4 12 2 20 -3 17 -9 -6 -19 23 -22 62 0 12 -4 20 -8 17 -9 -5 -27 41 -38 96 -7 36 -9 39 -10 15 l-1 -30 -15 29 c-9 16 -13 38 -10 50 3 12 2 15 -1 9 -10 -21 -21 -15 -27 16 -3 15 -20 52 -36 80 -20 34 -31 65 -31 91 0 21 -5 40 -12 42 -9 3 -9 26 0 101 7 52 12 112 12 131 0 25 6 38 20 46 11 6 20 21 20 35 0 13 11 37 25 53 13 16 22 32 19 35 -3 3 0 8 7 13 7 4 10 3 6 -2 -3 -6 -1 -16 4 -24 7 -12 8 -11 6 5 -1 11 -6 26 -11 34 -7 11 -10 11 -18 0 -7 -11 -8 -9 -6 6 2 11 -4 29 -14 39 -11 12 -18 35 -18 58 0 52 25 62 168 62 61 0 112 3 112 8 0 4 17 8 38 8 20 1 48 7 62 15 30 17 78 16 84 -2z m359 -30 c-13 -2 -33 -2 -45 0 -13 2 -3 4 22 4 25 0 35 -2 23 -4z m297 -455 c0 -19 -2 -20 -10 -8 -13 19 -13 30 0 30 6 0 10 -10 10 -22z m-160 -472 c0 -23 -16 -27 -17 -5 -1 10 2 19 8 19 5 0 9 -6 9 -14z m-460 -211 c0 -8 -6 -15 -14 -15 -20 0 -29 17 -14 23 22 9 28 7 28 -8z"/>
<path d="M910 1540 c-8 -5 -53 -10 -100 -11 -79 -2 -82 -2 -35 -9 86 -14 172 -12 178 4 10 25 -15 34 -43 16z"/>
<path d="M1013 1523 c15 -2 37 -2 50 0 12 2 0 4 -28 4 -27 0 -38 -2 -22 -4z"/>
<path d="M970 1492 c0 -4 16 -34 36 -67 21 -33 37 -66 37 -72 0 -7 5 -13 11 -13 6 0 19 -17 28 -38 37 -80 82 -134 121 -147 55 -19 102 -54 132 -100 l27 -40 -5 46 c-4 25 -18 78 -32 117 -21 55 -31 70 -46 69 -24 -2 -24 -9 1 -32 15 -13 17 -22 9 -36 -6 -11 -6 -19 0 -19 5 0 11 -7 14 -15 5 -12 2 -12 -18 -3 -14 6 -25 15 -25 20 0 4 -10 6 -22 5 -24 -4 -98 35 -79 41 9 3 9 7 0 18 -10 12 -8 13 15 5 41 -16 32 7 -10 25 -20 8 -34 18 -31 20 3 3 15 1 26 -6 14 -7 21 -7 21 0 0 5 -6 10 -14 10 -17 0 -66 39 -49 40 6 0 15 -4 18 -10 12 -19 22 -10 17 15 -3 16 -11 25 -23 25 -10 0 -21 5 -25 12 -7 11 10 9 50 -8 14 -5 17 -4 12 4 -4 7 -2 12 3 12 6 0 11 -5 11 -11 0 -7 8 -18 18 -26 16 -14 16 -14 0 -9 -22 7 -23 -3 -3 -31 11 -16 12 -22 3 -25 -8 -3 -4 -9 10 -17 28 -15 50 -4 27 13 -15 10 -14 12 4 13 11 1 23 -2 26 -8 4 -5 10 -9 16 -9 5 0 -2 22 -16 49 -23 46 -33 54 -142 113 -133 71 -153 80 -153 70z"/>
<path d="M520 1482 c0 -12 132 -167 144 -168 6 -1 16 -2 22 -3 6 0 18 -17 28 -37 9 -20 20 -34 23 -30 3 3 12 -3 20 -14 8 -11 19 -20 24 -20 6 0 22 -9 35 -19 13 -11 32 -18 41 -17 20 3 36 51 28 84 -3 12 -1 22 5 22 5 0 10 -7 10 -15 0 -21 41 -19 46 3 3 9 5 21 4 25 0 4 6 15 15 23 8 9 15 26 15 40 0 13 5 24 11 24 8 0 10 -16 6 -50 -5 -42 -3 -50 10 -50 9 0 13 3 10 7 -4 3 -3 11 2 17 13 18 20 55 10 61 -4 3 -22 33 -40 65 l-32 60 -218 0 c-121 0 -219 -3 -219 -8z"/>
<path d="M1320 1379 c0 -7 -12 -8 -32 -4 -31 6 -32 5 -13 -10 13 -10 29 -13 47 -9 24 5 28 2 28 -16 0 -20 -4 -22 -30 -16 -36 7 -37 4 -5 -30 19 -21 25 -23 25 -10 0 12 6 15 23 11 12 -3 34 -2 47 4 14 5 19 10 12 10 -8 1 -25 10 -38 20 -22 17 -23 21 -8 29 14 8 11 11 -16 21 -40 14 -40 14 -40 0z"/>
<path d="M1049 1293 c0 -4 -3 -17 -6 -28 -19 -77 -20 -75 37 -75 l52 0 -31 52 c-28 49 -50 71 -52 51z"/>
<path d="M1360 1265 c0 -11 -5 -12 -25 -5 -26 10 -31 4 -16 -19 5 -7 13 -11 18 -8 6 4 31 8 57 11 55 5 74 16 28 16 -17 0 -34 5 -37 10 -9 15 -25 12 -25 -5z"/>
<path d="M650 579 c0 -5 3 -8 8 -6 4 3 8 -10 9 -28 2 -37 49 -119 63 -110 6 3 10 1 10 -6 0 -7 3 -9 7 -5 5 4 0 13 -9 20 -14 10 -11 12 20 13 21 1 45 -6 55 -14 9 -9 17 -11 17 -6 0 6 -7 13 -15 17 -8 3 -15 12 -15 20 0 8 -8 17 -19 21 -13 4 -17 12 -13 32 4 19 2 24 -8 18 -8 -5 -10 -20 -6 -45 l6 -37 -33 15 c-19 8 -34 20 -35 26 -11 71 -16 86 -28 86 -8 0 -14 -5 -14 -11z"/>
</g>
<g id="layer114" fill="#96bee4" stroke="none">
<path d="M912 1868 c-41 -26 -75 -48 -77 -48 -2 0 -26 -13 -52 -28 -26 -16 -100 -50 -163 -77 -97 -41 -124 -57 -170 -104 -76 -77 -128 -188 -148 -316 -15 -93 -14 -199 2 -261 41 -158 55 -421 31 -554 -5 -28 -35 -99 -63 -152 -1 -3 16 -1 40 5 24 6 126 11 228 11 169 0 191 -2 255 -23 39 -13 87 -36 109 -50 101 -67 89 -63 106 -42 23 29 112 70 200 92 108 26 403 32 467 8 21 -8 22 -7 11 19 -7 15 -17 34 -24 42 -22 27 -52 133 -59 205 -8 83 8 208 36 288 11 32 18 64 15 72 -2 8 0 15 7 18 9 3 12 51 12 173 0 229 -27 328 -118 436 -43 51 -102 84 -292 163 -126 52 -235 114 -262 148 l-18 24 -73 -49z m42 -265 c3 -7 11 -13 18 -13 10 0 10 2 0 9 -22 14 14 17 113 12 78 -4 84 -6 45 -12 -44 -6 -43 -6 20 -8 46 -2 58 -5 40 -10 -21 -6 -18 -8 24 -14 27 -4 71 -7 98 -7 46 0 86 -19 71 -34 -4 -3 -1 -6 6 -6 8 0 11 -8 9 -18 -4 -12 5 -27 23 -41 16 -13 27 -27 24 -31 -8 -12 6 -41 16 -34 5 3 6 -1 3 -9 -3 -8 0 -18 7 -23 8 -5 10 -3 4 6 -5 9 -4 11 4 6 6 -4 9 -12 5 -17 -3 -6 8 -28 26 -50 18 -22 29 -43 26 -46 -3 -4 -6 -1 -6 6 0 7 -3 10 -8 7 -14 -9 -38 20 -97 117 l-59 97 -126 -1 c-94 -1 -115 -3 -85 -10 22 -4 59 -8 83 -8 30 -1 49 -8 64 -23 13 -13 36 -30 53 -38 19 -9 53 -50 91 -108 33 -51 70 -101 82 -113 25 -22 30 -38 7 -19 -13 11 -14 10 -9 -5 6 -14 4 -16 -7 -10 -12 7 -12 6 -1 -7 7 -9 15 -46 18 -82 6 -67 -8 -132 -42 -197 -8 -16 -11 -39 -8 -58 4 -19 2 -31 -4 -31 -6 0 -12 10 -15 23 -3 20 -4 19 -12 -8 -9 -33 -27 -55 -45 -55 -6 0 -9 -4 -6 -9 3 -5 -1 -22 -9 -37 -8 -16 -15 -22 -15 -14 -1 10 -5 7 -13 -8 -7 -12 -16 -20 -19 -16 -4 3 -20 -7 -36 -23 -45 -47 -157 -105 -205 -107 -23 -1 -60 -8 -83 -15 -35 -11 -45 -11 -72 3 -37 19 -42 20 -42 5 0 -5 4 -8 8 -5 5 3 9 -1 9 -9 0 -8 -4 -15 -9 -15 -4 0 -8 5 -8 11 0 5 -5 7 -11 3 -8 -4 -9 1 -4 17 4 13 4 21 0 17 -4 -4 -9 -19 -10 -33 -3 -20 1 -25 18 -25 18 0 19 -2 7 -10 -8 -5 -10 -10 -4 -10 7 0 14 -13 16 -29 2 -17 2 -30 -1 -29 -19 2 -24 -4 -11 -12 26 -16 -103 -12 -144 5 -20 9 -42 13 -48 9 -7 -4 -8 -3 -4 4 4 7 1 12 -9 12 -9 0 -13 4 -10 10 3 6 2 10 -4 10 -5 0 -13 9 -16 20 -4 11 -10 18 -14 15 -9 -5 -31 57 -34 92 0 12 -4 20 -8 17 -9 -5 -27 41 -38 96 -7 36 -9 39 -10 15 l-1 -30 -15 29 c-9 16 -13 38 -10 50 3 12 2 15 -1 9 -10 -21 -21 -15 -27 16 -3 15 -20 52 -36 80 -20 34 -31 65 -31 91 0 21 -5 40 -12 42 -9 3 -9 26 0 101 7 52 12 112 12 131 0 25 6 38 20 46 11 6 20 21 20 35 0 13 11 37 25 53 13 16 22 32 19 35 -3 3 0 8 7 13 7 4 10 3 6 -2 -3 -6 -1 -16 4 -24 7 -12 8 -11 6 5 -1 11 -6 26 -11 34 -7 11 -10 11 -18 0 -7 -11 -8 -9 -6 6 2 11 -4 29 -14 39 -11 12 -18 35 -18 58 0 52 25 62 168 62 61 0 112 3 112 8 0 4 17 8 38 8 20 1 48 7 62 15 30 17 78 16 84 -2z m359 -30 c-13 -2 -33 -2 -45 0 -13 2 -3 4 22 4 25 0 35 -2 23 -4z m297 -455 c0 -19 -2 -20 -10 -8 -13 19 -13 30 0 30 6 0 10 -10 10 -22z m-160 -472 c0 -23 -16 -27 -17 -5 -1 10 2 19 8 19 5 0 9 -6 9 -14z m-460 -211 c0 -8 -6 -15 -14 -15 -20 0 -29 17 -14 23 22 9 28 7 28 -8z"/>
<path d="M970 1494 c0 -19 82 -144 95 -144 9 0 14 -9 13 -23 -1 -12 19 -54 44 -93 35 -54 53 -72 74 -77 48 -10 122 -63 143 -104 25 -46 27 -23 7 55 -25 91 -49 141 -68 139 -23 -2 -23 -10 2 -32 15 -13 17 -22 9 -36 -6 -11 -6 -19 0 -19 5 0 11 -7 14 -15 5 -12 2 -12 -18 -3 -14 6 -25 15 -25 20 0 4 -10 6 -22 5 -24 -4 -98 35 -79 41 9 3 9 7 0 18 -14 17 -5 18 22 4 13 -8 19 -7 19 0 0 6 -16 18 -36 26 -20 8 -34 18 -31 20 3 3 15 1 26 -6 36 -18 23 -3 -15 19 -20 12 -34 25 -31 28 4 3 13 0 22 -7 13 -10 15 -9 15 9 0 14 -11 26 -32 35 -21 9 -27 15 -15 15 10 1 27 -4 38 -9 13 -7 19 -7 19 0 0 5 5 10 10 10 6 0 10 -5 10 -11 0 -7 8 -18 18 -26 16 -14 16 -14 0 -9 -22 7 -23 -3 -3 -31 11 -16 12 -22 3 -25 -8 -3 -4 -9 10 -17 29 -16 50 -4 25 15 -17 13 -17 13 4 14 12 0 25 -4 28 -10 3 -5 11 -10 16 -10 6 0 -2 23 -17 51 -19 34 -40 56 -63 68 -20 10 -80 41 -133 70 -54 29 -98 49 -98 45z"/>
<path d="M520 1482 c0 -9 129 -166 141 -170 4 -2 9 5 12 15 4 17 5 17 6 1 0 -10 8 -18 16 -18 9 0 21 -12 28 -27 18 -41 49 -74 64 -69 7 3 18 -3 25 -12 7 -9 25 -18 41 -19 28 -2 32 6 27 70 -1 15 3 27 9 27 6 0 11 -4 11 -10 0 -20 31 -9 42 15 6 14 14 25 18 25 7 0 8 8 11 55 1 14 7 25 15 25 9 0 14 -18 16 -57 l3 -58 13 40 c13 39 13 42 -25 107 l-38 68 -217 0 c-120 0 -218 -3 -218 -8z"/>
<path d="M1759 1359 c15 -6 21 -15 17 -24 -3 -8 -1 -15 4 -15 6 0 10 9 10 19 0 18 -19 32 -43 30 -7 0 -1 -5 12 -10z"/>
<path d="M213 1353 c-16 -6 -17 -29 -1 -39 7 -5 8 -3 3 6 -5 8 -1 18 10 27 19 13 12 16 -12 6z"/>
<path d="M210 1153 c19 -3 38 -10 42 -16 5 -8 8 -6 8 6 0 14 -8 17 -42 15 -41 -1 -41 -1 -8 -5z"/>
<path d="M233 929 c-25 -9 -30 -18 -10 -15 6 0 13 -3 14 -9 0 -5 -3 -9 -8 -7 -5 1 -9 -2 -9 -8 0 -14 19 -12 34 3 21 20 5 46 -21 36z"/>
<path d="M450 260 c0 -31 4 -40 18 -40 14 0 15 2 2 10 -13 9 -13 11 0 20 10 6 11 10 3 10 -20 0 -15 28 5 33 13 4 11 5 -5 6 -20 1 -23 -4 -23 -39z"/>
<path d="M1455 279 c-11 -16 4 -59 20 -59 7 0 16 4 19 9 3 5 -2 8 -12 7 -13 -1 -17 6 -15 27 2 29 -2 34 -12 16z"/>
</g>
<g id="layer115" fill="#f5f4f5" stroke="none">
<path d="M910 1540 c-8 -5 -44 -10 -80 -11 -86 -1 -42 -17 53 -18 61 -1 67 1 67 19 0 22 -16 26 -40 10z"/>
<path d="M1008 1523 c12 -2 32 -2 45 0 12 2 2 4 -23 4 -25 0 -35 -2 -22 -4z"/>
<path d="M970 1494 c0 -19 82 -144 95 -144 9 0 14 -9 13 -23 -1 -12 19 -54 44 -93 35 -54 53 -72 74 -77 48 -10 122 -63 143 -104 25 -46 27 -23 7 55 -25 91 -49 141 -68 139 -23 -2 -23 -10 2 -32 15 -13 17 -22 9 -36 -6 -11 -6 -19 0 -19 5 0 11 -7 15 -15 8 -21 -6 -19 -31 4 -11 11 -29 18 -39 17 -22 -3 -93 36 -75 42 9 3 9 7 0 18 -14 17 -5 18 22 4 13 -8 19 -7 19 0 0 6 -7 13 -15 16 -8 4 -13 10 -10 14 3 5 0 12 -6 16 -8 4 -9 3 -5 -4 4 -7 1 -12 -8 -12 -8 0 -18 5 -21 10 -3 6 -1 10 6 10 6 0 1 9 -12 20 -13 10 -19 19 -13 20 5 0 15 -5 22 -12 9 -9 12 -7 12 10 0 15 -10 26 -32 36 -21 9 -27 15 -15 15 10 1 27 -4 38 -9 13 -7 19 -7 19 0 0 5 5 10 10 10 6 0 10 -5 10 -11 0 -7 8 -18 18 -26 16 -14 16 -14 0 -9 -22 7 -23 -3 -3 -31 11 -16 12 -22 3 -25 -8 -3 -4 -9 10 -17 29 -16 50 -4 25 15 -17 13 -17 13 4 14 12 0 25 -4 28 -10 3 -5 11 -10 16 -10 6 0 -2 23 -17 51 -19 34 -40 56 -63 68 -20 10 -80 41 -133 70 -54 29 -98 49 -98 45z"/>
<path d="M522 1479 c5 -15 132 -168 140 -168 3 -1 9 7 11 17 4 16 5 16 6 0 0 -10 8 -18 16 -18 9 0 21 -12 28 -27 18 -41 49 -74 64 -69 7 3 18 -3 25 -12 7 -9 25 -18 41 -19 28 -2 32 6 27 70 -1 15 3 27 9 27 6 0 11 -4 11 -10 0 -20 31 -9 42 15 6 14 14 25 18 25 7 0 8 8 11 55 1 14 7 25 15 25 9 0 14 -18 16 -57 l3 -58 13 40 c13 39 13 42 -25 107 l-38 68 -218 0 c-153 0 -218 -3 -215 -11z"/>
<path d="M1155 1479 c22 -4 59 -8 83 -8 30 -1 49 -8 64 -23 13 -13 36 -30 53 -38 19 -10 54 -52 97 -117 38 -57 72 -103 78 -103 5 0 10 15 10 34 0 27 -6 38 -28 51 -15 9 -45 48 -67 86 -22 38 -43 69 -46 69 -4 0 -12 14 -19 30 l-12 30 -127 -1 c-94 -1 -116 -3 -86 -10z"/>
<path d="M1320 1379 c0 -7 -10 -9 -25 -7 -14 3 -25 2 -25 -2 0 -13 30 -20 56 -14 20 5 24 2 24 -16 0 -19 -4 -22 -30 -18 -16 3 -30 3 -30 2 0 -2 11 -15 25 -30 20 -22 25 -24 25 -9 0 13 5 16 24 11 13 -3 35 -2 48 3 13 6 17 10 10 10 -8 1 -25 10 -38 20 -22 17 -23 21 -8 29 14 8 11 11 -16 21 -40 14 -40 14 -40 0z"/>
<path d="M1759 1359 c15 -6 21 -14 17 -25 -3 -8 -2 -12 4 -9 25 15 1 46 -33 44 -7 0 -1 -5 12 -10z"/>
<path d="M1052 1287 c0 -7 -4 -31 -8 -54 l-7 -43 47 0 47 0 -28 50 c-28 49 -49 69 -51 47z"/>
<path d="M1361 1273 c3 -19 -3 -22 -26 -13 -26 10 -31 4 -16 -19 5 -7 13 -11 18 -8 5 3 29 8 52 11 50 6 67 16 28 16 -14 0 -29 5 -32 10 -7 12 -26 14 -24 3z"/>
<path d="M1730 1246 c0 -8 4 -18 10 -21 5 -3 7 0 4 9 -4 11 3 16 28 19 l33 4 -37 1 c-27 2 -38 -2 -38 -12z"/>
<path d="M250 1243 c15 -7 12 -21 -5 -26 -11 -4 -10 -4 2 -3 21 2 25 28 5 32 -7 1 -8 0 -2 -3z"/>
<path d="M1745 1170 c3 -5 16 -11 28 -11 20 -1 20 -2 2 -6 -11 -3 -24 -9 -29 -14 -5 -5 5 -4 24 1 45 13 47 18 16 30 -34 13 -49 13 -41 0z"/>
<path d="M190 1156 c0 -2 16 -6 35 -8 19 -2 35 0 35 4 0 4 -16 8 -35 8 -19 0 -35 -2 -35 -4z"/>
<path d="M191 1075 c0 -16 3 -25 7 -18 4 6 21 13 37 16 l30 4 -32 2 c-17 0 -34 7 -36 14 -3 6 -6 -1 -6 -18z"/>
<path d="M1743 1093 c13 -3 17 -11 14 -24 -4 -15 0 -19 20 -19 20 0 24 4 21 22 -2 18 -10 23 -38 24 -19 1 -27 0 -17 -3z"/>
<path d="M1726 995 c4 -10 1 -21 -7 -26 -11 -7 -9 -9 7 -9 15 0 20 6 19 22 -1 12 -7 24 -13 26 -8 2 -10 -3 -6 -13z"/>
<path d="M216 921 c-3 -5 0 -8 7 -7 6 0 12 -3 12 -9 0 -5 -3 -9 -7 -7 -5 1 -8 -2 -8 -8 0 -5 5 -10 11 -10 16 0 36 24 31 38 -4 14 -38 16 -46 3z"/>
<path d="M1718 908 c6 -6 8 -17 5 -24 -4 -10 3 -14 21 -14 14 0 26 4 26 10 0 5 -8 6 -17 3 -12 -5 -15 -2 -10 9 4 11 -1 18 -15 21 -15 4 -18 3 -10 -5z"/>
<path d="M253 840 c-25 -10 -31 -30 -10 -30 6 0 23 -3 37 -6 18 -4 21 -3 11 4 -8 6 -11 17 -8 26 7 18 2 19 -30 6z"/>
<path d="M1720 820 c-23 -7 -23 -8 -3 -9 12 -1 23 -7 25 -13 3 -7 7 -2 10 10 7 24 6 24 -32 12z"/>
<path d="M450 260 c0 -31 4 -40 18 -40 14 0 15 2 2 10 -13 9 -13 11 0 20 10 6 11 10 3 10 -7 0 -13 6 -13 14 0 8 6 17 13 19 7 3 5 6 -5 6 -14 1 -18 -7 -18 -39z"/>
<path d="M1455 279 c-11 -17 4 -59 22 -59 15 0 15 2 -2 14 -12 8 -16 20 -12 35 6 23 2 27 -8 10z"/>
<path d="M645 270 c3 -6 -1 -13 -9 -16 -22 -8 -21 -44 2 -44 15 0 15 2 2 10 -13 9 -13 12 3 21 19 11 23 39 6 39 -5 0 -7 -5 -4 -10z"/>
<path d="M1120 215 c0 -30 3 -35 23 -34 16 1 18 2 5 6 -21 5 -25 49 -5 56 7 3 5 6 -5 6 -14 1 -18 -7 -18 -34z"/>
<path d="M795 190 c-4 -6 6 -10 22 -10 22 0 25 2 13 10 -19 12 -27 12 -35 0z"/>
</g>


</svg>